<?xml version="1.0" encoding="utf-8"?>
<!-- Generator: Adobe Illustrator 14.0.0, SVG Export Plug-In . SVG Version: 6.00 Build 43363)  -->
<!DOCTYPE svg PUBLIC "-//W3C//DTD SVG 1.1//EN" "http://www.w3.org/Graphics/SVG/1.1/DTD/svg11.dtd">
<svg version="1.1" id="Layer_1" xmlns="http://www.w3.org/2000/svg" xmlns:xlink="http://www.w3.org/1999/xlink" x="0px" y="0px"
	 width="700px" height="700px" viewBox="-52.5 -52.5 700 700" enable-background="new -52.5 -52.5 700 700" xml:space="preserve">
<rect display="none" fill="#8DB7E2" width="595.275" height="595.275"/>
<rect x="0.358" y="390.643" display="none" fill="#79C36E" width="595.275" height="204.274"/>
<line display="none" fill="none" stroke="#F9ED32" stroke-width="3" stroke-linecap="round" stroke-linejoin="round" x1="157.297" y1="538.72" x2="168.193" y2="550.366"/>
<line display="none" fill="none" stroke="#F9ED32" stroke-width="3" stroke-linecap="round" stroke-linejoin="round" x1="167.556" y1="539.488" x2="156.935" y2="550.109"/>
<ellipse display="none" fill="#579353" cx="193.5" cy="442.5" rx="100.5" ry="13.5"/>
<ellipse display="none" fill="#579353" cx="251.422" cy="476.313" rx="51.584" ry="10.229"/>
<ellipse display="none" fill="#579353" cx="356.881" cy="478.535" rx="32.399" ry="9.032"/>
<ellipse display="none" fill="#579353" cx="413.5" cy="440.5" rx="79.5" ry="13.5"/>
<path display="none" fill="none" stroke="#5EAF58" stroke-width="3" stroke-linecap="round" stroke-linejoin="round" d="
	M530.909,472.806c0,0,2.087-12.178-1.044-15.309"/>
<path display="none" fill="none" stroke="#5EAF58" stroke-width="3" stroke-linecap="round" stroke-linejoin="round" d="
	M522.907,471.761c0-3.271,0.479-6.049-2.437-8.002"/>
<path display="none" fill="none" stroke="#5EAF58" stroke-width="3" stroke-linecap="round" stroke-linejoin="round" d="
	M536.824,472.109c0.969-3.069,4.271-6.813,7.306-7.308"/>
<path display="none" fill="none" stroke="#5EAF58" stroke-width="3" stroke-linecap="round" stroke-linejoin="round" d="
	M101.021,507.442c0,0,2.087-12.179-1.044-15.31"/>
<path display="none" fill="none" stroke="#5EAF58" stroke-width="3" stroke-linecap="round" stroke-linejoin="round" d="
	M93.019,506.397c0-3.271,0.479-6.05-2.436-8.003"/>
<path display="none" fill="none" stroke="#5EAF58" stroke-width="3" stroke-linecap="round" stroke-linejoin="round" d="
	M106.936,506.746c0.969-3.069,4.271-6.813,7.306-7.307"/>
<line display="none" fill="none" stroke="#5EAF58" stroke-width="3" stroke-linecap="round" stroke-linejoin="round" x1="160.946" y1="564.344" x2="162.994" y2="544.877"/>
<circle display="none" fill="#F9ED32" cx="162.653" cy="544.535" r="3.516"/>
<line display="none" fill="none" stroke="#5EAF58" stroke-width="3" stroke-linecap="round" stroke-linejoin="round" x1="452.28" y1="514.984" x2="454.328" y2="495.518"/>
<line display="none" fill="none" stroke="#FFFFFF" stroke-width="3" stroke-linecap="round" stroke-linejoin="round" x1="233.847" y1="524.249" x2="244.742" y2="535.896"/>
<line display="none" fill="none" stroke="#FFFFFF" stroke-width="3" stroke-linecap="round" stroke-linejoin="round" x1="244.105" y1="525.018" x2="233.484" y2="535.639"/>
<line display="none" fill="none" stroke="#5EAF58" stroke-width="3" stroke-linecap="round" stroke-linejoin="round" x1="237.495" y1="549.873" x2="239.543" y2="530.406"/>
<circle display="none" fill="#F9ED32" cx="239.202" cy="530.064" r="3.516"/>
<line display="none" fill="none" stroke="#FFFFFF" stroke-width="3" stroke-linecap="round" stroke-linejoin="round" x1="45.022" y1="438.286" x2="55.918" y2="449.933"/>
<line display="none" fill="none" stroke="#FFFFFF" stroke-width="3" stroke-linecap="round" stroke-linejoin="round" x1="55.281" y1="439.055" x2="44.66" y2="449.676"/>
<line display="none" fill="none" stroke="#5EAF58" stroke-width="3" stroke-linecap="round" stroke-linejoin="round" x1="48.671" y1="463.91" x2="50.719" y2="444.443"/>
<circle display="none" fill="#F9ED32" cx="50.378" cy="444.102" r="3.516"/>
<line display="none" fill="none" stroke="#FFFFFF" stroke-width="3" stroke-linecap="round" stroke-linejoin="round" x1="542.997" y1="529.479" x2="553.893" y2="541.124"/>
<line display="none" fill="none" stroke="#FFFFFF" stroke-width="3" stroke-linecap="round" stroke-linejoin="round" x1="553.256" y1="530.246" x2="542.635" y2="540.867"/>
<line display="none" fill="none" stroke="#5EAF58" stroke-width="3" stroke-linecap="round" stroke-linejoin="round" x1="546.646" y1="555.102" x2="548.693" y2="535.635"/>
<circle display="none" fill="#F9ED32" cx="548.354" cy="535.293" r="3.516"/>
<line display="none" fill="none" stroke="#F9ED32" stroke-width="3" stroke-linecap="round" stroke-linejoin="round" x1="448.632" y1="489.36" x2="459.527" y2="501.007"/>
<line display="none" fill="none" stroke="#F9ED32" stroke-width="3" stroke-linecap="round" stroke-linejoin="round" x1="458.891" y1="490.129" x2="448.27" y2="500.75"/>
<circle display="none" fill="#F9ED32" cx="453.987" cy="495.176" r="3.516"/>
<path display="none" fill="#6FC7C4" d="M123.043,245.279c0,0-58.825,62.938-28.291,129.172c0,0,20.668,48.854,106.162,48.854
	s112.74-76.099,112.74-110.859c0,0-0.164-39.047-29.208-60.625"/>
<path display="none" fill="#F0BDD5" d="M293.924,113.743l-7.985,0.939c0,0-48.116,3.796-91.504,16.33
	c0.326-11.306,0.707-31.733-12.78-24.785c-12.212,6.291-4.604,22.486-0.822,29.08c-6.65,2.299-13.037,4.833-18.95,7.622
	c-0.261-10.821-2.189-32.33-16.397-25.428c-12.627,6.133-2.262,24.445,3.229,32.617c-4.451,2.847-8.398,5.904-11.684,9.19
	c0,0-73.281,79.857,33.352,114.618c0,0,79.856,22.548,119.315-28.185c0,0,25.828-36.085,2.02-75.282
	c8.093-4.062,17.573-10.746,24.286-21.486C316.002,148.974,325.396,118.441,293.924,113.743z"/>
<path display="none" fill="#F0BDD5" d="M73.343,390.475c-6.128-0.106-10.566-4.847-10.735-4.928l0,0
	c-0.756-0.755-0.756-1.982-0.002-2.734l0,0c0.757-0.758,1.982-0.761,2.739-0.004l0,0c0.003-0.004,0.201,0.203,0.637,0.569l0,0
	c0.434,0.363,1.07,0.858,1.84,1.349l0,0c1.538,0.984,3.59,1.892,5.521,1.877l0,0c2.072-0.049,4.206-0.809,6.488-4.371l0,0
	c-1.594-0.645-2.944-1.521-4.041-2.559l0,0c-2.415-2.285-3.555-5.268-3.555-8.058l0,0c0.002-2.287,0.76-4.513,2.352-6.112l0,0
	c1.043-1.066,2.463-1.627,3.838-1.615l0,0c4.312,0.12,7.88,4.41,7.907,10.287l0,0c0.002,1.663-0.288,3.46-0.929,5.352l0,0
	c0.389,0.027,0.792,0.045,1.21,0.05l0,0c3.857,0.012,5.946-0.566,6.813-1.063l0,0c0.845-0.543,0.642-0.598,0.703-0.769l0,0
	c0.008-0.144-0.08-0.388-0.11-0.431l0,0h0.001l0,0l0,0l0,0c-0.539-0.902-0.257-2.074,0.639-2.635l0,0
	c0.907-0.563,2.1-0.287,2.667,0.62l0,0c0.088,0.163,0.655,1.021,0.674,2.444l0,0c0.063,1.367-0.835,3.197-2.699,4.154l0,0
	c-1.843,1.004-4.48,1.539-8.688,1.552l0,0c-1.013,0.001-1.976-0.065-2.887-0.193l0,0c-0.107,0.19-0.217,0.384-0.331,0.575l0,0
	c-2.713,4.68-6.474,6.645-9.92,6.645l0,0C73.431,390.477,73.387,390.477,73.343,390.475L73.343,390.475z M78.425,367.759
	c-0.423,0.015-0.725,0.114-1.097,0.478l0,0c-0.727,0.72-1.222,1.943-1.22,3.381l0,0c0.064,2.59,1.486,5.683,5.461,7.134l0,0
	c0.637-1.705,0.892-3.239,0.892-4.574l0,0c0-2.159-0.666-3.813-1.519-4.895l0,0c-0.844-1.078-1.845-1.522-2.489-1.522l0,0
	C78.444,367.759,78.435,367.759,78.425,367.759L78.425,367.759z M94.021,377.313L94.021,377.313
	C94.02,377.313,94.02,377.313,94.021,377.313L94.021,377.313z"/>
<path display="none" fill="#00A651" d="M92.994,375.261c-6.417-13.915-8.969-27.719-8.969-40.813l0,0
	c0.072-50.479,37.506-90.328,37.603-90.492l0,0c0.729-0.781,1.954-0.821,2.734-0.091l0,0c0.781,0.729,0.824,1.954,0.094,2.734l0,0
	c0,0.003-0.545,0.583-1.538,1.742l0,0c-0.995,1.157-2.423,2.877-4.141,5.094l0,0c-3.432,4.436-8.016,10.872-12.6,18.831l0,0
	c-9.169,15.925-18.289,37.921-18.28,62.182l0,0c0,12.595,2.441,25.807,8.636,39.247l0,0c0.002,0,0.056,0.135,0.215,0.465l0,0
	c0.158,0.328,0.405,0.82,0.757,1.458l0,0c0.697,1.274,1.797,3.118,3.387,5.341l0,0c3.177,4.443,8.3,10.406,16.061,16.386l0,0
	c15.522,11.944,41.577,24.014,83.96,24.023l0,0c42.154-0.029,69.646-18.654,86.88-41.62l0,0
	c17.212-22.95,23.943-50.395,23.923-67.295l0,0c-0.007-0.005-0.007-2.311-0.467-6.221l0,0c-0.456-3.912-1.369-9.363-3.166-15.462
	l0,0c-3.599-12.213-10.729-26.955-24.792-37.397l0,0c-0.858-0.638-1.036-1.851-0.4-2.71l0,0c0.639-0.856,1.852-1.036,2.708-0.397
	l0,0c29.935,22.366,29.941,61.981,29.986,62.179l0,0c-0.017,17.851-6.91,45.837-24.694,69.625l0,0
	c-17.76,23.772-46.639,43.198-89.979,43.171l0,0c-0.063,0-0.112,0-0.175,0l0,0C114.583,425.235,93.053,375.631,92.994,375.261
	L92.994,375.261z"/>
<path display="none" fill="#EE97C0" d="M210.902,280.855c-23.118-0.005-40.942-5.039-41.123-5.09l0,0
	c-45.33-14.658-59.323-38.214-59.241-60.421l0,0c0.098-30.347,24.986-57.179,25.122-57.407l0,0
	c18.527-18.424,55.913-29.459,88.822-36.226l0,0c32.894-6.719,61.253-8.955,61.229-8.952l0,0l7.984-0.938l0.513,0.008
	c10.237,1.507,16.686,5.803,20.378,11.078l0,0c3.702,5.266,4.659,11.285,4.661,16.21l0,0c-0.005,5.89-1.366,10.31-1.397,10.424l0,0
	l-0.21,0.457c-6.481,10.319-15.333,16.996-23.21,21.241l0,0c6.891,12.054,9.313,23.847,9.307,34.348l0,0
	c-0.023,23.927-12.363,41.109-12.515,41.343l0,0c-21.442,27.539-54.344,33.925-80.304,33.925l0,0
	C210.914,280.855,210.907,280.855,210.902,280.855L210.902,280.855z M286.09,116.61c-0.019,0.005-7.025,0.555-18.159,1.943l0,0
	c-11.136,1.39-26.355,3.618-42.674,6.95l0,0c-32.62,6.618-69.687,17.898-86.803,35.113l0,0c0,0.005-1.47,1.6-3.735,4.516l0,0
	c-2.261,2.916-5.286,7.113-8.303,12.203l0,0c-6.049,10.177-12.021,23.917-12.008,38.01l0,0
	c0.083,20.399,12.083,42.119,56.499,56.719l0,0c0.002,0,1.049,0.297,3.03,0.757l0,0c1.982,0.46,4.872,1.076,8.468,1.693l0,0
	c7.192,1.236,17.22,2.469,28.498,2.469l0,0c25.419-0.002,56.931-6.262,77.219-32.367l0,0c0-0.002,0.159-0.221,0.473-0.705l0,0
	c0.316-0.481,0.771-1.204,1.321-2.15l0,0c1.1-1.887,2.575-4.657,4.053-8.136l0,0c2.952-6.963,5.9-16.755,5.897-28.038l0,0
	c-0.005-9.965-2.274-21.088-8.896-32.601l0,0c-8.378,3.952-14.928,5.105-15.024,5.138l0,0c-1.052,0.188-2.06-0.514-2.248-1.563l0,0
	c-0.187-1.055,0.513-2.06,1.565-2.249l0,0c0.003,0,0.351-0.061,1.063-0.226l0,0c0.712-0.165,1.759-0.425,3.062-0.811l0,0
	c2.445-0.721,5.795-1.875,9.55-3.62l0,0c-0.276-0.427-0.558-0.854-0.846-1.281l0,0c-0.598-0.885-0.364-2.089,0.521-2.685l0,0
	c0.888-0.598,2.089-0.367,2.688,0.521l0,0c0.384,0.569,0.758,1.139,1.121,1.707l0,0c7.439-3.978,15.767-10.205,21.79-19.735l0,0
	c0.103-0.369,0.32-1.192,0.544-2.394l0,0c0.313-1.677,0.623-4.029,0.623-6.671l0,0c0.002-4.438-0.885-9.635-3.952-13.98l0,0
	c-3.048-4.299-8.229-7.982-17.537-9.442l0,0L286.09,116.61L286.09,116.61z"/>
<path display="none" fill="#EE97C0" d="M285.867,141.276c-1.268-3.637-1.874-7.292-1.874-10.75l0,0
	c-0.011-8.409,3.631-15.953,10.604-18.434l0,0c1.443-0.502,2.938-0.744,4.432-0.744l0,0c8.591,0.087,16.812,7.531,20.557,18.167l0,0
	l-1.826,0.638l1.826-0.638c1.27,3.637,1.875,7.295,1.875,10.751l0,0c0.01,8.408-3.635,15.95-10.604,18.433l0,0
	c-1.444,0.503-2.938,0.743-4.433,0.743l0,0C297.831,159.354,289.613,151.91,285.867,141.276L285.867,141.276z M299.029,115.221
	c-1.08,0-2.132,0.171-3.156,0.527l0,0c-4.82,1.635-8.002,7.35-8.01,14.778l0,0c0,3.004,0.529,6.239,1.659,9.478l0,0
	c3.299,9.559,10.748,15.655,16.902,15.567l0,0c1.081,0,2.135-0.17,3.155-0.526l0,0c4.816-1.635,7.999-7.353,8.01-14.778l0,0
	c0-3.003-0.528-6.238-1.658-9.475l0,0l0,0c-3.277-9.495-10.64-15.572-16.768-15.571l0,0
	C299.119,115.221,299.073,115.221,299.029,115.221L299.029,115.221z"/>
<path display="none" fill="#EE97C0" d="M150.07,155.337c-0.037-0.047-3.111-3.952-6.212-9.347l0,0
	c-3.087-5.416-6.28-12.251-6.314-18.604l0,0c-0.076-4.614,2.02-9.24,7.095-11.627l0,0c2.092-1.017,4.059-1.533,5.911-1.533l0,0
	c3.585-0.026,6.405,2.038,8.181,4.753l0,0c1.826,2.729,2.92,6.173,3.666,9.763l0,0c1.475,7.167,1.459,15.003,1.464,18.354l0,0
	c0,1.068-0.867,1.935-1.936,1.935l0,0c-1.071,0-1.938-0.867-1.938-1.935l0,0c0-2.483,0-7.38-0.586-12.49l0,0
	c-0.566-5.102-1.799-10.418-3.881-13.466l0,0c-1.422-2.048-2.868-3.017-4.971-3.043l0,0c-1.121,0-2.514,0.317-4.221,1.145l0,0
	c-3.714,1.875-4.835,4.47-4.911,8.145l0,0c-0.089,7.563,6.508,18.361,9.866,23.063l0,0c1.11,1.584,1.828,2.494,1.828,2.496l0,0
	h0.002c0.66,0.84,0.513,2.058-0.325,2.718l0,0c-0.355,0.279-0.777,0.414-1.196,0.414l0,0
	C151.02,156.076,150.452,155.823,150.07,155.337L150.07,155.337z"/>
<path display="none" fill="#EE97C0" d="M180.997,139.264c-0.045-0.158-7.847-11.212-7.934-21.757l0,0
	c-0.068-4.97,2.052-10.156,7.705-13.001l0,0c2.073-1.066,3.975-1.621,5.771-1.623l0,0c2.257-0.024,4.256,0.98,5.606,2.495l0,0
	c1.371,1.511,2.236,3.441,2.855,5.572l0,0c1.222,4.261,1.463,9.458,1.471,14.202l0,0c0,4.125-0.202,7.913-0.2,10.2l0,0
	c0,1.067-0.867,1.934-1.936,1.934l0,0c-1.069,0-1.934-0.867-1.934-1.934l0,0c0-2.477,0.197-6.187,0.197-10.2l0,0
	c0.087-6.862-0.817-14.662-3.313-17.163l0,0c-0.798-0.841-1.534-1.214-2.748-1.235l0,0c-0.969-0.005-2.298,0.315-4.001,1.192l0,0
	c-4.282,2.27-5.535,5.48-5.603,9.56l0,0c-0.045,6.457,4.051,14.372,6.131,17.788l0,0c0.688,1.145,1.122,1.778,1.122,1.778l0,0v0.003
	c0.604,0.88,0.38,2.086-0.5,2.69l0,0c-0.335,0.229-0.716,0.339-1.093,0.339l0,0C181.979,140.104,181.372,139.811,180.997,139.264
	L180.997,139.264z"/>
<path display="none" fill="#BB7198" d="M243.002,229.297c-2.295-3.031-3.049-5.94-3.092-6.086l0,0v0.002
	c-0.27-1.035,0.35-2.094,1.385-2.361l0,0c1.032-0.273,2.091,0.347,2.362,1.382l0,0c0.002,0,0.021,0.093,0.105,0.345l0,0
	c0.082,0.249,0.217,0.622,0.41,1.071l0,0c0.384,0.903,1.006,2.115,1.912,3.304l0,0c1.848,2.38,4.604,4.617,9.321,4.638l0,0
	c4.077,0.016,8.684-2.081,12.178-5.438l0,0c3.51-3.354,5.85-7.865,5.84-12.45l0,0c0-1.332-0.194-2.679-0.609-4.035l0,0
	c-0.313-1.022,0.259-2.105,1.281-2.42l0,0c1.022-0.315,2.104,0.259,2.419,1.282l0,0c0.533,1.726,0.778,3.465,0.778,5.173l0,0
	c-0.011,5.911-2.925,11.314-7.034,15.248l0,0c-4.122,3.926-9.493,6.494-14.854,6.51l0,0c-0.02,0-0.04,0-0.061,0l0,0
	C249.289,235.463,245.255,232.311,243.002,229.297L243.002,229.297z"/>
<path display="none" d="M107.518,194.323c-0.399-0.99,0.079-2.119,1.071-2.519l0,0l77.978-31.473c0.993-0.4,2.119,0.079,2.521,1.071
	l0,0c0.4,0.991-0.079,2.117-1.071,2.519l0,0l-77.978,31.473c-0.237,0.096-0.482,0.141-0.724,0.141l0,0
	C108.548,195.535,107.823,195.077,107.518,194.323L107.518,194.323z"/>
<path display="none" d="M211.755,151.45c-0.33-1.018,0.227-2.11,1.245-2.44l0,0c0.021-0.008,17.401-5.645,23.389-7.95l0,0
	c0.998-0.383,2.119,0.113,2.501,1.113l0,0c0.385,0.997-0.113,2.115-1.11,2.5l0,0c-6.225,2.389-23.563,8.011-23.585,8.019l0,0v0.003
	c-0.197,0.063-0.397,0.093-0.595,0.093l0,0C212.782,152.789,212.021,152.268,211.755,151.45L211.755,151.45z"/>
<path display="none" d="M203.262,174.396c-10.063-0.019-18.36-7.717-18.376-17.436l0,0c0.016-9.722,8.313-17.42,18.376-17.439l0,0
	c5.037-0.005,9.403,1.954,12.438,5.14l0,0c3.044,3.181,4.771,7.552,4.769,12.299l0,0c0.002,4.745-1.725,9.116-4.769,12.299l0,0
	c-3.03,3.18-7.384,5.138-12.408,5.137l0,0C203.282,174.396,203.271,174.396,203.262,174.396L203.262,174.396z M188.756,156.96
	c0.016,7.401,6.409,13.558,14.505,13.565l0,0c8.021-0.045,13.271-5.943,13.334-13.565l0,0c-0.063-7.625-5.313-13.523-13.334-13.565
	l0,0C195.165,143.402,188.772,149.558,188.756,156.96L188.756,156.96z"/>
<path display="none" fill="#FFFFFF" d="M208.434,152.259c2.371,2.831,3.708,7.851,0.705,10.365
	c-3.002,2.514-9.857,2.175-12.228-0.656c-2.37-2.831-1.858-9.583,1.145-12.097C201.058,147.357,206.064,149.428,208.434,152.259z"/>
<path display="none" fill="#EE97C0" d="M195.427,163.209c-1.434-1.752-1.926-4.031-1.944-6.325l0,0
	c0.037-3.115,0.926-6.407,3.328-8.496l0,0c1.337-1.126,2.984-1.592,4.542-1.584l0,0c3.381,0.05,6.543,1.855,8.565,4.212l0,0
	l-1.482,1.242l-1.487,1.242c-1.223-1.521-3.772-2.874-5.596-2.826l0,0c-0.85,0.007-1.495,0.218-2.055,0.681l0,0
	c-1.063,0.808-1.979,3.233-1.941,5.528l0,0c-0.019,1.673,0.466,3.199,1.039,3.841l0,0c0.621,0.847,2.823,1.694,5.057,1.655l0,0
	c1.847,0.019,3.636-0.529,4.441-1.24l0,0c0.716-0.613,1.024-1.399,1.042-2.552l0,0c0.023-1.628-0.857-3.77-1.987-5.088l0,0
	l1.487-1.242l1.482-1.242c1.667,2.021,2.865,4.744,2.889,7.572l0,0c0.018,1.947-0.679,4.065-2.426,5.52l0,0
	c-1.916,1.566-4.436,2.126-6.928,2.145l0,0C200.46,166.214,197.392,165.453,195.427,163.209L195.427,163.209z"/>
<path display="none" fill="#FFFFFF" d="M253.965,132.408c2.37,2.831,3.708,8.792,0.705,11.307
	c-3.002,2.514-9.026,1.234-11.396-1.597s-2.689-9.583,0.313-12.097C246.589,127.506,251.595,129.577,253.965,132.408z"/>
<path display="none" fill="#EE97C0" d="M241.79,143.358c-1.612-1.974-2.288-4.69-2.312-7.415l0,0
	c0.024-2.696,0.69-5.528,2.865-7.407l0,0c1.337-1.126,2.983-1.591,4.54-1.583l0,0c3.382,0.048,6.543,1.855,8.567,4.209l0,0
	l-1.485,1.245l-1.482,1.242c-1.226-1.522-3.776-2.875-5.6-2.825l0,0c-0.848,0.005-1.493,0.217-2.056,0.68l0,0
	c-0.828,0.631-1.501,2.426-1.477,4.439l0,0c-0.024,1.992,0.645,4.072,1.408,4.931l0,0c0.922,1.181,3.472,2.289,5.647,2.249l0,0
	c1.295,0.002,2.378-0.344,3.021-0.891l0,0c0.642-0.531,1.036-1.503,1.041-2.896l0,0c0.029-1.966-0.925-4.463-1.985-5.687l0,0
	l1.482-1.242l1.485-1.245c1.733,2.117,2.859,5.14,2.888,8.174l0,0c0.002,2.077-0.607,4.323-2.426,5.861l0,0
	c-1.591,1.321-3.581,1.792-5.507,1.797l0,0C247.144,146.955,243.841,145.729,241.79,143.358L241.79,143.358z"/>
<path display="none" d="M236.745,149.766c-2.867-3.597-4.419-8.273-4.425-12.984l0,0c0.016-9.72,8.313-17.419,18.377-17.436l0,0
	c5.033-0.007,9.402,1.952,12.439,5.137l0,0c3.042,3.182,4.769,7.554,4.766,12.299l0,0c-0.082,9.694-8.517,18.961-18.832,19.065l0,0
	c-0.011,0-0.021,0-0.033,0l0,0C243.881,155.847,239.593,153.351,236.745,149.766L236.745,149.766z M236.192,136.782
	c-0.006,3.851,1.309,7.739,3.575,10.566l0,0c2.286,2.83,5.391,4.616,9.303,4.626l0,0c3.917,0.008,7.673-1.864,10.458-4.758l0,0
	c2.785-2.888,4.512-6.75,4.501-10.434l0,0c-0.063-7.623-5.313-13.521-13.333-13.566l0,0
	C242.601,123.224,236.206,129.381,236.192,136.782L236.192,136.782z"/>
<path display="none" fill="#F09DC4" d="M203.096,206.659c4.816,6.68,5.808,16.882,0.29,20.859
	c-5.518,3.977-15.457,3.866-20.271-2.814c-4.816-6.68-4.246-18.959,1.272-22.938C189.904,197.789,198.281,199.979,203.096,206.659z"
	/>
<ellipse display="none" fill="#BD739C" cx="297.73" cy="135.508" rx="3.372" ry="3.63"/>
<ellipse display="none" fill="#BD739C" cx="308.36" cy="133.174" rx="3.371" ry="3.63"/>
<ellipse display="none" cx="201.697" cy="157.029" rx="2.459" ry="2.593"/>
<ellipse display="none" cx="246.731" cy="137.958" rx="2.459" ry="2.593"/>
<path display="none" fill="#A66634" d="M229.569,211.482c-1.692-1.708-1.769-4.054-1.837-6.587l0,0
	c0.002-3.58,0.67-7.579,1.018-9.495l0,0c0.161-0.878,1-1.458,1.877-1.297l0,0c0.875,0.158,1.455,1,1.297,1.875l0,0
	c-0.337,1.824-0.97,5.728-0.965,8.917l0,0c-0.071,2.249,0.499,4.118,0.781,4.202l0,0c0.659,0.599,0.707,1.619,0.108,2.277l0,0
	c-0.318,0.351-0.755,0.528-1.193,0.528l0,0C230.266,211.902,229.878,211.764,229.569,211.482L229.569,211.482z"/>
<path display="none" fill="#A66634" d="M247.32,201.737c-0.887-0.088-1.537-0.877-1.447-1.761l0,0
	c0.108-1.08,0.286-2.089,0.28-2.878l0,0c0-0.689-0.116-1.144-0.333-1.46l0,0c-0.496-0.74-0.301-1.743,0.438-2.239l0,0
	c0.739-0.499,1.743-0.301,2.239,0.438l0,0c0.715,1.063,0.881,2.238,0.881,3.261l0,0c-0.005,1.198-0.213,2.294-0.295,3.192l0,0
	c-0.084,0.833-0.787,1.455-1.604,1.455l0,0C247.426,201.744,247.374,201.742,247.32,201.737L247.32,201.737z"/>
<path display="none" fill="#A66634" d="M261.831,200.577c-0.498-0.55-0.544-1.351-0.162-1.948l0,0
	c-0.057-0.551-0.715-2.261-1.609-3.676l0,0c-0.912-1.581-2.248-3.109-2.621-3.279l0,0c-0.764-0.458-1.013-1.449-0.553-2.213l0,0
	c0.458-0.764,1.449-1.01,2.213-0.552l0,0c1.404,0.901,2.576,2.533,3.726,4.381l0,0c1.087,1.882,2.01,3.683,2.071,5.461l0,0
	c-0.003,0.56-0.119,1.324-0.785,1.945l0,0c-0.308,0.277-0.694,0.414-1.079,0.414l0,0C262.59,201.11,262.15,200.931,261.831,200.577
	L261.831,200.577z"/>
<path display="none" fill="#A66634" d="M281.114,194.01c-0.217-1.349-0.688-1.942-1.491-2.514l0,0
	c-0.808-0.554-2.061-0.936-3.51-1.222l0,0c-2.869-0.657-6.517-0.67-8.93-3.399l0,0h0.003c-0.57-0.686-0.472-1.703,0.215-2.27l0,0
	c0.686-0.567,1.703-0.472,2.27,0.214l0,0c0.686,0.909,2.477,1.476,4.752,1.862l0,0c2.244,0.432,4.827,0.708,7.004,2.141l0,0
	c1.455,0.949,2.604,2.594,2.883,4.734l0,0c0.124,0.882-0.49,1.698-1.373,1.825l0,0c-0.075,0.01-0.15,0.015-0.224,0.015l0,0
	C281.92,195.397,281.228,194.816,281.114,194.01L281.114,194.01z"/>
<path display="none" fill="#A66634" d="M302.932,221.99c-2.47-2.246-8.182-3.833-10.79-7.661l0,0l0.003,0.003
	c-0.481-0.752-0.26-1.75,0.491-2.228l0,0c0.751-0.48,1.749-0.26,2.227,0.494l0,0c1.295,2.298,6.784,4.196,10.165,6.941l0,0
	c0.677,0.579,0.756,1.595,0.178,2.272l0,0c-0.32,0.373-0.773,0.564-1.229,0.564l0,0C303.605,222.376,303.234,222.25,302.932,221.99
	L302.932,221.99z"/>
<path display="none" fill="#A66634" d="M296.415,243.091c-2.332-2.74-6.741-5.154-9.309-8.699l0,0h0.002
	c-0.515-0.727-0.342-1.732,0.384-2.247l0,0c0.727-0.515,1.733-0.342,2.248,0.384l0,0c1.835,2.685,6.17,5.147,9.104,8.441l0,0
	c0.586,0.671,0.516,1.692-0.156,2.277l0,0c-0.306,0.266-0.683,0.396-1.058,0.396l0,0
	C297.181,243.645,296.733,243.457,296.415,243.091L296.415,243.091z"/>
<path display="none" fill="#A66634" d="M285.201,256.626c-0.822-0.649-3.005-2.382-5.218-4.298l0,0
	c-2.229-1.945-4.428-3.948-5.533-5.586l0,0c-0.305-0.501-0.62-0.941-0.657-1.81l0,0c0-0.106,0.008-0.186,0.019-0.252l0,0
	c0.114-0.882,0.925-1.505,1.808-1.392l0,0c0.77,0.102,1.342,0.73,1.4,1.475l0,0c0.024,0.047,0.065,0.117,0.121,0.2l0,0
	c0.172,0.263,0.485,0.652,0.883,1.087l0,0c0.8,0.877,1.947,1.961,3.156,3.034l0,0c2.422,2.152,5.104,4.283,6.026,5.017l0,0
	c0.697,0.554,0.813,1.566,0.262,2.266l0,0c-0.318,0.401-0.789,0.609-1.264,0.609l0,0
	C285.852,256.976,285.498,256.862,285.201,256.626L285.201,256.626z"/>
<path display="none" fill="#A66634" d="M266.245,270.102c-1.299-4.423-3.207-9.388-4.455-13.999l0,0
	c-0.23-0.86,0.277-1.746,1.137-1.979l0,0c0.86-0.232,1.746,0.275,1.979,1.138l0,0c1.18,4.381,3.077,9.333,4.434,13.931l0,0
	c0.251,0.854-0.238,1.751-1.093,2.002l0,0c-0.152,0.044-0.305,0.066-0.456,0.066l0,0
	C267.095,271.261,266.452,270.805,266.245,270.102L266.245,270.102z"/>
<path display="none" fill="#A66634" d="M245.438,268.34c-0.857-0.251-1.346-1.148-1.097-2.001l0,0
	c0.079-0.262,0.124-0.603,0.124-1.005l0,0c0.032-2.017-1.27-5.323-2.258-7.38l0,0l0.002,0.002c-0.381-0.806-0.035-1.767,0.771-2.147
	l0,0c0.807-0.378,1.767-0.032,2.145,0.775l0,0c1.029,2.234,2.534,5.632,2.565,8.75l0,0c0,0.646-0.071,1.285-0.254,1.912l0,0
	c-0.205,0.704-0.848,1.161-1.545,1.161l0,0C245.742,268.405,245.589,268.384,245.438,268.34L245.438,268.34z"/>
<path display="none" fill="none" d="M221.448,268.379c3.104-4.636,4.758-10.534,4.444-16.189"/>
<path display="none" fill="#F0BDD5" d="M65.087,320.975c-0.638-0.854-0.462-2.067,0.396-2.707l0,0l47.046-35.063
	c0.859-0.637,2.071-0.462,2.708,0.396l0,0c0.641,0.855,0.462,2.07-0.394,2.708l0,0L67.795,321.37
	c-0.347,0.26-0.752,0.385-1.155,0.385l0,0C66.05,321.755,65.467,321.484,65.087,320.975L65.087,320.975z"/>
<path display="none" fill="#F0BDD5" d="M76.246,323.406l-0.203-10.58l-11.745-3.584l0.002,0.003c-1.024-0.313-1.6-1.396-1.29-2.417
	l0,0c0.311-1.023,1.396-1.602,2.417-1.289l0,0l13.09,3.996c0.8,0.24,1.354,0.979,1.372,1.814l0,0l0.226,11.984
	c0.019,1.068-0.832,1.952-1.901,1.971l0,0c-0.013,0-0.026,0-0.039,0l0,0C77.125,325.307,76.264,324.463,76.246,323.406
	L76.246,323.406z"/>
<path display="none" fill="#F0BDD5" d="M132.669,444.252c-1.067-0.057-1.888-0.968-1.831-2.035l0,0l2.22-41.721
	c0.057-1.067,0.968-1.885,2.035-1.828l0,0c1.067,0.057,1.888,0.968,1.831,2.035l0,0l-2.221,41.721
	c-0.055,1.032-0.909,1.831-1.931,1.831l0,0C132.739,444.255,132.704,444.254,132.669,444.252L132.669,444.252z"/>
<path display="none" d="M157.223,446.268c3.332,0,6.032-1.863,6.032-4.16c0-2.299-2.701-4.161-6.032-4.161l-23.252,1.794
	c-2.613,0-4.731,1.462-4.731,3.265c0,1.802,2.118,3.264,4.731,3.264L157.223,446.268L157.223,446.268z"/>
<path display="none" fill="#F0BDD5" d="M257.193,444.252c-1.067-0.057-1.887-0.968-1.831-2.035l0,0l2.22-41.721
	c0.057-1.067,0.968-1.885,2.035-1.828l0,0c1.067,0.057,1.887,0.968,1.828,2.035l0,0l-2.218,41.721
	c-0.054,1.032-0.909,1.831-1.931,1.831l0,0C257.263,444.255,257.229,444.254,257.193,444.252L257.193,444.252z"/>
<path display="none" d="M281.747,446.268c3.332,0,6.031-1.863,6.031-4.16c0-2.299-2.699-4.161-6.031-4.161l-23.252,1.794
	c-2.614,0-4.732,1.462-4.732,3.265c0,1.802,2.118,3.264,4.732,3.264L281.747,446.268L281.747,446.268z"/>
<path display="none" fill="#F0BDD5" d="M338.121,316.434l-31.239-27.352c-0.804-0.704-0.885-1.926-0.182-2.729l0,0
	c0.706-0.805,1.929-0.887,2.73-0.182l0,0l31.238,27.349c0.807,0.705,0.888,1.928,0.182,2.729l0,0
	c-0.383,0.438-0.918,0.661-1.456,0.661l0,0C338.942,316.91,338.489,316.753,338.121,316.434L338.121,316.434z"/>
<path display="none" fill="#F0BDD5" d="M325.507,320.439c-1.002-0.381-1.503-1.5-1.121-2.498l0,0c0-0.008,0.785-2.065,1.568-4.533
	l0,0c0.789-2.424,1.543-5.404,1.514-6.516l0,0c0-0.168-0.019-0.268-0.019-0.268l0,0c-0.243-0.975,0.301-1.975,1.252-2.3l0,0
	c0.018-0.005,2.282-0.779,5.008-1.562l0,0c2.764-0.774,5.827-1.58,8.039-1.604l0,0c0.435,0.002,0.868,0.023,1.375,0.167l0,0
	c1.025,0.299,1.614,1.372,1.314,2.399l0,0c-0.302,1.025-1.375,1.611-2.399,1.314l0,0c-0.006,0.007-0.024,0-0.082-0.007l0,0
	c-0.043-0.005-0.11-0.009-0.208-0.005l0,0c-1.239-0.026-4.388,0.701-6.973,1.455l0,0c-1.35,0.386-2.585,0.771-3.469,1.058l0,0
	c-0.163,2.086-0.93,4.67-1.666,7.037l0,0c-0.819,2.58-1.631,4.715-1.638,4.733l0,0v0.002c-0.294,0.772-1.03,1.248-1.812,1.248l0,0
	C325.965,320.566,325.732,320.525,325.507,320.439L325.507,320.439z"/>
<path display="none" fill="#F0BDD5" d="M445.192,441.77l-1.832-37.927c-0.053-1.067,0.771-1.976,1.84-2.027l0,0
	c1.067-0.053,1.975,0.771,2.024,1.84l0,0l1.833,37.928c0.054,1.067-0.771,1.975-1.839,2.027l0,0
	c-0.031,0.003-0.063,0.003-0.093,0.003l0,0C446.097,443.612,445.241,442.806,445.192,441.77L445.192,441.77z"/>
<path display="none" d="M426.946,445.263c-2.749,0-4.979-1.693-4.979-3.782s2.229-3.781,4.979-3.781l19.19,1.631
	c2.157,0,3.905,1.329,3.905,2.966c0,1.639-1.748,2.968-3.905,2.968L426.946,445.263L426.946,445.263z"/>
<path display="none" fill="#F0BDD5" d="M374.402,441.77l-1.831-37.929c-0.054-1.065,0.771-1.975,1.838-2.025l0,0
	c1.07-0.053,1.977,0.772,2.028,1.841l0,0l1.833,37.926c0.051,1.069-0.772,1.976-1.843,2.027l0,0
	c-0.031,0.001-0.063,0.002-0.094,0.002l0,0C375.31,443.61,374.451,442.806,374.402,441.77L374.402,441.77z"/>
<path display="none" d="M356.157,445.263c-2.749,0-4.979-1.693-4.979-3.782s2.229-3.781,4.979-3.781l19.19,1.631
	c2.157,0,3.905,1.329,3.905,2.966c0,1.639-1.748,2.968-3.905,2.968L356.157,445.263L356.157,445.263z"/>
<path display="none" fill="#F0BDD5" d="M510.61,394.807c-0.113-0.125-0.226-0.25-0.333-0.373l0,0
	c-0.889,0.203-1.836,0.357-2.84,0.459l0,0c-1.559,0.166-2.894,0.24-4.045,0.24l0,0c-2.55-0.012-4.234-0.336-5.535-1.072l0,0
	c-1.323-0.703-2.034-2.17-1.976-3.22l0,0c0.022-1.171,0.474-1.823,0.561-1.987l0,0c0.563-0.906,1.757-1.182,2.663-0.614l0,0
	c0.848,0.528,1.146,1.604,0.717,2.485l0,0c0.326,0.195,1.424,0.547,3.57,0.537l0,0c0.984,0,2.188-0.063,3.634-0.219l0,0
	c0.305-0.036,0.6-0.076,0.887-0.12l0,0c-0.777-1.604-1.144-3.184-1.14-4.677l0,0c0.034-4.784,3.615-8.201,7.475-8.25l0,0
	c1.036-0.003,2.115,0.277,3.057,0.887l0,0c1.951,1.249,3.04,3.432,3.03,5.696l0,0c-0.007,3.216-2.048,6.44-6.032,8.438l0,0
	c1.838,1.654,3.545,2.131,5.219,2.152l0,0c3.146,0.04,6.368-2.139,7.688-3.27l0,0c0.443-0.369,0.642-0.569,0.642-0.571l0,0v0.002
	c0.758-0.756,1.981-0.756,2.738,0l0,0c0.753,0.754,0.753,1.981,0,2.735l0,0c-0.166,0.09-4.689,4.878-11.067,4.975l0,0
	c-0.023,0.001-0.05,0.001-0.074,0.001l0,0C516.548,399.043,513.332,397.817,510.61,394.807L510.61,394.807z M511.89,383.014
	c-0.729,0.772-1.243,1.857-1.247,3.232l0,0c0.002,1.023,0.292,2.259,1.118,3.669l0,0c3.584-1.446,4.71-3.765,4.703-5.336l0,0
	c-0.012-1.088-0.467-1.927-1.257-2.443l0,0c-0.287-0.182-0.584-0.266-0.959-0.269l0,0c-0.01,0-0.02,0-0.028,0l0,0
	C513.531,381.867,512.606,382.253,511.89,383.014L511.89,383.014z"/>
<path display="none" fill="#F0BDD5" d="M329.246,349.386c-0.888-0.071-1.55-0.851-1.479-1.737l0,0l0.76-9.479l-12.12-3.909h0.003
	c-0.852-0.273-1.317-1.184-1.043-2.029l0,0c0.274-0.852,1.184-1.316,2.033-1.043l0,0l13.333,4.305
	c0.713,0.229,1.17,0.916,1.111,1.664l0,0l-0.86,10.756c-0.067,0.841-0.773,1.48-1.605,1.48l0,0
	C329.334,349.391,329.29,349.391,329.246,349.386L329.246,349.386z"/>
<path display="none" fill="#F0BDD5" d="M317.547,341.907c-0.32-0.833,0.096-1.767,0.928-2.086l0,0l10.881-4.188l21.702-20.848
	c0.644-0.619,1.661-0.599,2.277,0.045l0,0c0.616,0.642,0.598,1.661-0.046,2.276l0,0l-21.935,21.078
	c-0.155,0.148-0.34,0.267-0.54,0.345l0,0l-11.184,4.301c-0.188,0.071-0.387,0.106-0.578,0.106l0,0
	C318.405,342.938,317.794,342.546,317.547,341.907L317.547,341.907z"/>
<path display="none" fill="#F3AA84" d="M499.597,416.17H329.694c0,0-5.161-98.07,40.002-126.458l86.888-2.15
	c0,0,43.013,12.043,43.013,126.889"/>
<path display="none" fill="#F19365" d="M329.694,417.781c-0.856,0-1.567-0.673-1.611-1.527l0,0
	c-0.003-0.023-0.181-3.447-0.185-9.188l0,0c0.004-12.563,0.854-36.225,6.349-59.746l0,0c5.507-23.502,15.604-47.002,34.589-58.976
	l0,0c0.247-0.154,0.528-0.238,0.819-0.246l0,0l86.887-2.15l0.476,0.057c0.77,0.135,44.302,13.262,44.192,128.442l0,0
	c0,0.314-0.091,0.61-0.249,0.858l0,0c0.158,0.25,0.249,0.546,0.249,0.862l0,0c0,0.89-0.725,1.611-1.613,1.611l0,0L329.694,417.781
	L329.694,417.781z M497.986,414.556c-0.003-0.034-0.004-0.069-0.004-0.106l0,0c-0.078-107.354-37.493-123.687-41.477-125.212l0,0
	c-0.061-0.022-0.112-0.041-0.154-0.056l0,0l-86.171,2.132c-17.547,11.212-27.438,33.746-32.793,56.738l0,0
	c-5.406,23.133-6.264,46.6-6.262,59.016l0,0c-0.001,3.416,0.063,5.984,0.113,7.489l0,0H497.986L497.986,414.556z"/>
<path display="none" fill="#F0BDD5" d="M465.427,214.498c-4.318-5.953-9.078-10.669-14.37-14.476c1.07-1.47,2.079-2.988,3.116-4.478
	c2.77-3.975,8.739-16.02,0.34-17.297c-8.221-1.25-12.709,8.182-13.495,15.878c-4.328-2.052-8.972-3.719-13.965-5.123
	c-1.281-0.36-2.579-0.705-3.875-1.048c2.823-6.056,3.409-15.207-1.812-19.266c-7.201-5.6-13.306,5.696-13.874,11.743
	c-0.119,1.279-0.068,2.607,0.17,3.899c-21.403-4.342-44.073-6.255-65.25-4.406l-5.295,1.728
	c-8.773,2.475-17.043,18.548-12.96,26.638c4,7.924,16.098,16.359,24.302,19.217c3.704,1.291,7.735,3.018,11.784,3.795
	c-7.435,14.51-9.673,25.839-6.001,43.499c4.707,22.64,25.504,32.917,48.125,36.697c35.475,5.931,64.623-13.742,72.472-49.266
	C478.421,246.022,475.336,228.156,465.427,214.498z"/>
<path display="none" fill="#EE97C0" d="M414.686,314.152c-4.094,0-8.299-0.35-12.585-1.065l0,0
	c-22.842-3.784-44.507-14.349-49.438-37.958l0,0c-1.187-5.687-1.774-10.766-1.774-15.53l0,0c-0.006-9.63,2.428-17.908,6.975-27.178
	l0,0c-3.531-0.916-6.891-2.341-9.935-3.389l0,0c-8.618-3.07-20.784-11.433-25.209-20.011l0,0c-0.888-1.751-1.252-3.73-1.252-5.778
	l0,0c0.015-4.643,1.835-9.738,4.576-14.058l0,0c2.765-4.297,6.433-7.869,10.571-9.064l0,0l5.295-1.729l0.361-0.073
	c5.51-0.486,11.119-0.712,16.777-0.712l0,0c23.05,0,46.92,3.798,68.439,9.844l0,0c16.188,4.532,29.01,11.969,39.242,26.1l0,0
	c7.473,10.305,11.156,22.889,11.159,35.415l0,0c-0.003,4.581-0.493,9.159-1.479,13.615l0,0c-7,31.91-31.189,51.574-61.614,51.574
	l0,0C414.76,314.152,414.722,314.152,414.686,314.152L414.686,314.152z M354.116,259.598c0,4.497,0.551,9.35,1.705,14.875l0,0
	c4.48,21.667,24.411,31.657,46.811,35.433l0,0c4.119,0.688,8.146,1.02,12.054,1.02l0,0c29.045-0.045,51.74-18.368,58.576-49.043l0,0
	c0.935-4.225,1.402-8.568,1.4-12.919l0,0c0.002-11.899-3.507-23.826-10.543-33.519l0,0c-9.816-13.501-21.746-20.44-37.505-24.889
	l0,0c-21.262-5.978-44.868-9.725-67.565-9.725l0,0c-5.509,0-10.964,0.219-16.313,0.683l0,0l-5.184,1.688
	c-2.983,0.812-6.333,3.828-8.788,7.715l0,0c-2.479,3.865-4.086,8.549-4.07,12.323l0,0c0,1.667,0.302,3.14,0.902,4.322l0,0
	c3.572,7.267,15.602,15.773,23.393,18.422l0,0c3.385,1.192,6.933,2.661,10.373,3.482l0,0c0.539-1.026,1.103-2.068,1.688-3.126l0,0
	l0.002,0.003c0.431-0.78,1.412-1.063,2.191-0.631l0,0c0.775,0.432,1.061,1.413,0.628,2.19l0,0c-0.398,0.722-0.784,1.432-1.158,2.133
	l0,0c0.508,0.045,1.011,0.068,1.51,0.066l0,0c0.595-0.002,1.185-0.035,1.771-0.108l0,0c0.883-0.108,1.687,0.523,1.795,1.408l0,0
	c0.109,0.882-0.521,1.686-1.404,1.794l0,0c-0.725,0.089-1.441,0.132-2.162,0.132l0,0c-1.038-0.004-2.068-0.091-3.09-0.238l0,0
	C356.473,242.41,354.121,250.281,354.116,259.598L354.116,259.598z"/>
<path display="none" fill="#EE97C0" d="M321.271,202.215c0-3.715,1.107-7.622,3.627-11.046l0,0
	c4.795-6.584,10.934-11.361,19.432-11.999l0,0c0.332-0.026,0.666,0.054,0.955,0.227l0,0l2.237,1.349
	c2.46,1.402,4.357,2.648,5.728,4.321l0,0c1.388,1.68,2.043,3.792,2.024,6.267l0,0c0,1.334-0.168,2.795-0.465,4.473l0,0
	c-1.236,6.8-5.525,13.39-10.644,17.745l0,0c-3.382,2.87-6.811,4.203-9.998,4.203l0,0
	C326.383,217.676,321.284,210.16,321.271,202.215L321.271,202.215z M327.498,193.076c-2.088,2.849-2.998,6.06-3,9.14l0,0
	c-0.003,3.326,1.08,6.478,2.834,8.724l0,0c1.769,2.25,4.105,3.584,6.836,3.589l0,0c2.274-0.002,4.95-0.933,7.912-3.438l0,0
	c4.58-3.862,8.523-10.009,9.554-15.85l0,0c0.274-1.56,0.413-2.848,0.413-3.907l0,0c-0.019-2-0.42-3.118-1.302-4.232l0,0
	c-0.896-1.115-2.47-2.229-4.85-3.571l0,0l0.796-1.403l-0.832,1.382l-1.788-1.077C336.979,183.153,331.947,187.046,327.498,193.076
	L327.498,193.076z"/>
<path display="none" fill="#F09DC4" d="M433.591,245.557c-6.103,0.22-9.753,2.316-12.521,7.749
	c-2.044,4.007-3.735,9.64-0.537,13.539c7.33,8.936,26.773,2.072,25.579-9.761c-0.731-7.26-8.356-11.073-14.733-11.526"/>
<path display="none" fill="#E64C8E" d="M384.854,276.815c-6.931-1.035-11.092-4.795-13.301-8.228l0,0
	c-2.233-3.438-2.688-6.525-2.717-6.694l0,0h0.003c-0.155-1.056,0.575-2.039,1.632-2.195l0,0c1.06-0.155,2.04,0.576,2.195,1.635l0,0
	c0.005,0,0.011,0.086,0.071,0.348l0,0c0.057,0.263,0.155,0.654,0.313,1.139l0,0c0.314,0.967,0.856,2.292,1.743,3.653l0,0
	c1.806,2.723,4.842,5.609,10.645,6.512l0,0c1.031,0.158,2.016,0.228,2.952,0.228l0,0c8.378,0.035,13.53-5.786,14.622-7.182l0,0
	c0.149-0.193,0.197-0.262,0.201-0.262l0,0c0.607-0.879,1.813-1.096,2.69-0.485l0,0c0.879,0.608,1.096,1.814,0.484,2.693l0,0
	c-0.14,0.168-6.244,9.047-17.999,9.109l0,0C387.258,277.085,386.078,277,384.854,276.815L384.854,276.815z"/>
<path display="none" fill="#FFFFFF" d="M423.073,210.124c-5.068,0.551-13.506,6.829-9.46,12.875
	c3.79,5.664,11.774,1.122,13.648-3.71c1.359-3.506,0.853-7.138-2.807-8.888"/>
<path display="none" fill="#BA9BC9" d="M412.272,223.897c-0.909-1.346-1.345-2.809-1.342-4.214l0,0
	c0.03-3.166,1.989-5.771,4.306-7.677l0,0c2.354-1.907,5.152-3.196,7.661-3.486l0,0c0.428-0.046,0.834,0.078,1.149,0.319l0,0
	c0.356-0.093,0.746-0.066,1.104,0.105l0,0c2.99,1.38,4.462,4.175,4.411,6.931l0,0c-0.003,1.34-0.293,2.691-0.801,3.997l0,0
	c-1.605,3.902-5.853,7.267-10.39,7.366l0,0c-0.033,0-0.065,0-0.099,0l0,0C416.058,227.239,413.749,226.155,412.272,223.897
	L412.272,223.897z M423.248,211.727c-1.633,0.159-4.096,1.228-5.971,2.777l0,0c-1.914,1.552-3.147,3.505-3.12,5.18l0,0
	c0.005,0.768,0.212,1.54,0.794,2.417l0,0c1.006,1.448,2.074,1.88,3.423,1.912l0,0c2.738,0.103,6.475-2.744,7.384-5.309l0,0
	c0.385-0.991,0.58-1.963,0.577-2.829l0,0c-0.05-1.788-0.652-3.05-2.574-4.02l0,0c-0.102-0.048-0.194-0.106-0.282-0.171l0,0
	C423.404,211.704,423.326,211.718,423.248,211.727L423.248,211.727z"/>
<path display="none" fill="#FFFFFF" d="M387.639,195.175c-6.289,0.75-7.254,11.189-3.342,15.079
	c4.991,4.964,12.906-2.872,13.133-8.276c0.23-5.513-6.093-6.043-10.067-6.526"/>
<path display="none" fill="#BA9BC9" d="M383.157,211.397c-1.972-1.995-2.787-4.911-2.801-7.798l0,0
	c0.002-2.23,0.507-4.483,1.638-6.362l0,0c1.109-1.87,2.997-3.385,5.453-3.664l0,0c0.486-0.058,0.951,0.109,1.286,0.419l0,0
	c1.751,0.214,3.84,0.514,5.745,1.297l0,0c2.342,0.889,4.625,3.055,4.566,6.397l0,0c0,0.107,0,0.225-0.007,0.359l0,0
	c-0.139,2.673-1.568,5.348-3.545,7.525l0,0c-1.992,2.14-4.596,3.843-7.53,3.875l0,0c-0.017,0-0.033,0-0.049,0l0,0
	C386.245,213.446,384.52,212.773,383.157,211.397L383.157,211.397z M384.753,198.908c-0.75,1.229-1.176,2.961-1.173,4.691l0,0
	c-0.013,2.255,0.737,4.437,1.854,5.511l0,0c0.854,0.83,1.634,1.095,2.53,1.108l0,0c1.54,0.032,3.58-1.095,5.155-2.833l0,0
	c1.593-1.703,2.659-3.956,2.696-5.471l0,0c0.006-0.073,0.006-0.147,0.006-0.228l0,0c-0.061-1.904-0.86-2.616-2.581-3.417l0,0
	c-1.704-0.72-4.104-0.988-6.071-1.219l0,0c-0.09-0.01-0.177-0.028-0.26-0.052l0,0C386.021,197.331,385.338,197.971,384.753,198.908
	L384.753,198.908z"/>
<ellipse display="none" fill="#BD739C" cx="333.242" cy="197.528" rx="3.184" ry="3.46"/>
<ellipse display="none" fill="#BD739C" cx="344.315" cy="198.773" rx="3.184" ry="3.46"/>
<path display="none" fill="#EE97C0" d="M420.107,192.544c-0.688-0.566-0.787-1.584-0.222-2.271l0,0
	c2.119-2.529,3.831-7.432,3.809-11.858l0,0c0-3.584-1.056-6.712-3.318-8.453l0,0c-1.149-0.886-2.095-1.17-2.951-1.176l0,0
	c-1.783-0.048-3.845,1.544-5.458,4.057l0,0c-1.608,2.454-2.686,5.63-2.87,7.743l0,0c-0.038,0.397-0.06,0.797-0.057,1.197l0,0
	c-0.005,2.626,0.809,5.266,2.476,7.029l0,0c0.606,0.649,0.572,1.673-0.077,2.28l0,0c-0.65,0.609-1.673,0.575-2.279-0.075l0,0
	c-2.377-2.55-3.343-5.979-3.346-9.234l0,0c0-0.507,0.023-1.012,0.072-1.5l0,0c0.271-2.794,1.476-6.247,3.375-9.198l0,0
	c1.896-2.89,4.571-5.475,8.164-5.523l0,0c1.65-0.005,3.354,0.621,4.931,1.853l0,0c3.359,2.634,4.565,6.85,4.565,11l0,0
	c-0.022,5.208-1.812,10.551-4.542,13.91l0,0h0.002c-0.32,0.387-0.782,0.588-1.249,0.588l0,0
	C420.771,192.913,420.409,192.792,420.107,192.544L420.107,192.544z"/>
<path display="none" fill="#EE97C0" d="M445.98,205.693c-0.612-0.649-0.582-1.67,0.066-2.281l0,0c2.6-2.44,4.59-5.608,6.797-8.789
	l0,0c1.602-2.229,4.43-7.799,4.364-11.269l0,0c0-1.063-0.231-1.845-0.628-2.362l0,0c-0.397-0.512-1.008-0.94-2.318-1.153l0,0
	c-0.421-0.064-0.82-0.095-1.207-0.095l0,0c-3.267-0.005-5.816,2.15-7.719,5.538l0,0c-1.87,3.347-2.844,7.749-2.836,11.223l0,0
	c0,0.835,0.057,1.613,0.158,2.306l0,0h0.003c0.13,0.881-0.478,1.702-1.357,1.834l0,0c-0.884,0.132-1.702-0.477-1.834-1.357l0,0
	c-0.132-0.876-0.192-1.808-0.195-2.783l0,0c0.01-4.042,1.056-8.829,3.239-12.788l0,0c2.152-3.921,5.683-7.196,10.541-7.198l0,0
	c0.556,0,1.123,0.042,1.697,0.131l0,0c1.896,0.277,3.444,1.115,4.4,2.392l0,0c0.959,1.271,1.283,2.804,1.283,4.312l0,0
	c-0.063,4.883-3.121,10.417-4.94,13.111l0,0c-2.154,3.084-4.24,6.464-7.234,9.294l0,0c-0.313,0.294-0.711,0.44-1.107,0.44l0,0
	C446.725,206.2,446.296,206.03,445.98,205.693L445.98,205.693z"/>
<path display="none" d="M385.017,195.519c-0.015-0.035-2.266-3.571-2.904-6.518l0,0c-0.075-0.348,0.146-0.69,0.495-0.765l0,0
	c0.347-0.075,0.688,0.147,0.766,0.495l0,0c0.539,2.576,2.725,6.099,2.735,6.101l0,0h0.003c0.188,0.303,0.096,0.701-0.206,0.891l0,0
	c-0.106,0.066-0.227,0.097-0.341,0.097l0,0C385.348,195.82,385.138,195.713,385.017,195.519L385.017,195.519z"/>
<path display="none" d="M390.302,196.063c-0.003-0.019-0.329-1.89-0.332-3.907l0,0c0.024-1.66,0.155-3.423,1.188-4.513l0,0
	c0.252-0.249,0.66-0.249,0.912,0.003l0,0c0.25,0.251,0.25,0.661-0.002,0.912l0,0c-0.533,0.472-0.829,2.05-0.807,3.597l0,0
	c-0.002,1.881,0.309,3.685,0.312,3.688l0,0c0.062,0.351-0.178,0.687-0.527,0.747l0,0c-0.037,0.006-0.074,0.009-0.11,0.009l0,0
	C390.628,196.6,390.354,196.376,390.302,196.063L390.302,196.063z"/>
<path display="none" d="M395.186,198.207c-0.347-0.083-0.558-0.431-0.475-0.776l0,0c0.075-0.03,1.194-5.732,4.99-6.726l0,0
	c0.345-0.077,0.689,0.142,0.769,0.488l0,0c0.077,0.348-0.143,0.694-0.489,0.771l0,0c-1.24,0.249-2.313,1.625-3.004,3.042l0,0
	c-0.692,1.4-1.012,2.721-1.012,2.724l0,0c-0.071,0.297-0.336,0.495-0.628,0.495l0,0C395.288,198.225,395.236,198.22,395.186,198.207
	L395.186,198.207z"/>
<path display="none" d="M391.743,216.945c-1.753-0.929-1.855-3.059-1.882-4.266l0,0c0-0.602,0.053-1.02,0.056-1.039l0,0
	c0.046-0.353,0.367-0.602,0.721-0.556l0,0c0.354,0.045,0.603,0.367,0.561,0.719l0,0c0,0-0.047,0.351-0.047,0.875l0,0
	c-0.026,1.116,0.29,2.762,1.156,3.105l0,0c0.321,0.155,0.455,0.543,0.298,0.864l0,0c-0.111,0.228-0.342,0.362-0.58,0.362l0,0
	C391.93,217.01,391.834,216.989,391.743,216.945L391.743,216.945z"/>
<path display="none" d="M383.226,216.585c-0.252-0.251-0.252-0.66,0-0.912l0,0c0.3-0.279,0.951-1.453,1.429-2.477l0,0
	c0.493-1.035,0.877-1.96,0.881-1.963l0,0c0.136-0.329,0.513-0.484,0.842-0.348l0,0c0.326,0.136,0.484,0.514,0.348,0.842l0,0
	c-0.04,0.045-1.498,3.716-2.586,4.857l0,0c-0.126,0.126-0.291,0.189-0.456,0.189l0,0
	C383.517,216.774,383.351,216.711,383.226,216.585L383.226,216.585z"/>
<path display="none" d="M378.092,211.648c-0.315-0.166-0.436-0.557-0.271-0.872l0,0c0.492-0.85,1.604-1.529,2.674-2.2l0,0
	c1.06-0.64,2.03-1.131,2.04-1.134l0,0c0.318-0.16,0.703-0.032,0.867,0.286l0,0c0.16,0.318,0.03,0.704-0.286,0.866l0,0
	c-0.003,0-0.944,0.474-1.952,1.086l0,0c-1.003,0.578-2.104,1.428-2.197,1.695l0,0c-0.116,0.221-0.342,0.347-0.575,0.347l0,0
	C378.291,211.722,378.188,211.699,378.092,211.648L378.092,211.648z"/>
<path display="none" d="M409.135,226.572c-0.253-0.252-0.253-0.66,0-0.912l0,0c1.126-1.116,4.09-3.176,4.106-3.191l0,0h0.003
	c0.289-0.204,0.69-0.134,0.895,0.158l0,0c0.206,0.292,0.136,0.694-0.157,0.898l0,0c-0.003,0.005-3,2.107-3.933,3.049l0,0
	c-0.127,0.124-0.292,0.187-0.456,0.187l0,0C409.427,226.761,409.262,226.698,409.135,226.572L409.135,226.572z"/>
<path display="none" d="M414.413,229.113c0.1-1.712,2.19-3.944,2.203-4.035l0,0c0.228-0.273,0.635-0.308,0.908-0.081l0,0
	c0.273,0.231,0.309,0.636,0.081,0.91l0,0c0,0.003-0.497,0.59-0.987,1.317l0,0c-0.501,0.703-0.95,1.64-0.915,1.889l0,0
	c0,0.355-0.289,0.646-0.646,0.646l0,0C414.7,229.759,414.413,229.469,414.413,229.113L414.413,229.113z"/>
<path display="none" d="M422.649,230.157c-1.036-1.117-2.172-4.775-2.222-4.832l0,0l0.003,0.003
	c-0.114-0.338,0.064-0.706,0.403-0.819l0,0c0.338-0.113,0.703,0.067,0.817,0.405l0,0c0,0.003,0.314,0.932,0.727,1.959l0,0
	c0.385,1.012,0.962,2.182,1.187,2.371l0,0c0.252,0.252,0.252,0.663,0,0.915l0,0c-0.129,0.125-0.294,0.188-0.459,0.188l0,0
	C422.94,230.347,422.775,230.283,422.649,230.157L422.649,230.157z"/>
<path display="none" d="M427.787,213.668c-0.328-0.143-0.48-0.522-0.338-0.85l0,0c0.003-0.008,0.625-1.461,1.447-3.003l0,0
	c0.877-1.55,1.725-3.151,2.908-3.691l0,0c0.334-0.126,0.707,0.041,0.833,0.373l0,0c0.127,0.331-0.038,0.704-0.37,0.831l0,0
	c-0.342,0.048-1.49,1.62-2.231,3.097l0,0c-0.792,1.483-1.399,2.899-1.402,2.901l0,0l0.003,0.002
	c-0.105,0.245-0.345,0.391-0.595,0.391l0,0C427.957,213.719,427.87,213.703,427.787,213.668L427.787,213.668z"/>
<path display="none" d="M422.36,209.583c-0.002-0.024-0.461-1.866-0.464-3.675l0,0c0.017-1.087,0.12-2.204,0.874-2.988l0,0
	c0.253-0.252,0.66-0.25,0.912,0.003l0,0c0.25,0.254,0.247,0.663-0.005,0.912l0,0c-0.295,0.25-0.507,1.106-0.494,2.072l0,0
	c-0.002,1.598,0.429,3.363,0.431,3.369l0,0h0.003c0.083,0.346-0.129,0.695-0.476,0.781l0,0c-0.052,0.012-0.103,0.018-0.152,0.018
	l0,0C422.698,210.076,422.434,209.88,422.36,209.583L422.36,209.583z"/>
<path display="none" d="M417.962,211.51c-0.007-0.064-3.029-5.224-3.081-8.073l0,0c0-0.356,0.289-0.644,0.647-0.644l0,0
	c0.354,0,0.644,0.288,0.644,0.644l0,0c-0.016,1.001,0.7,2.946,1.44,4.535l0,0c0.734,1.602,1.471,2.9,1.474,2.903l0,0v0.002
	c0.176,0.309,0.066,0.703-0.245,0.878l0,0c-0.101,0.057-0.21,0.084-0.316,0.084l0,0C418.298,211.839,418.081,211.72,417.962,211.51
	L417.962,211.51z"/>
<ellipse display="none" cx="422.873" cy="217.687" rx="2.529" ry="2.497"/>
<ellipse display="none" cx="391.203" cy="203.878" rx="2.53" ry="2.497"/>
<path display="none" fill="#F0BDD5" d="M518.952,352.309l-12.044-4.302c-0.226-0.079-0.435-0.211-0.6-0.379l0,0L476.2,317.521
	c-0.631-0.631-0.631-1.652,0-2.283l0,0c0.629-0.633,1.649-0.633,2.281,0l0,0l29.851,29.852l11.704,4.18l0.003,0.002
	c0.836,0.299,1.276,1.223,0.975,2.063l0,0c-0.235,0.657-0.856,1.068-1.52,1.068l0,0
	C519.315,352.402,519.131,352.372,518.952,352.309L518.952,352.309z"/>
<path display="none" fill="#F0BDD5" d="M509.342,358.973l-3.443-12.043c-0.228-0.797,0.186-1.633,0.953-1.938l0,0l12.902-5.163
	l0.003,0.003c0.825-0.331,1.763,0.069,2.095,0.897l0,0c0.329,0.826-0.071,1.766-0.897,2.096l0,0l-11.553,4.619l3.042,10.646
	c0.242,0.855-0.252,1.746-1.107,1.993l0,0c-0.146,0.042-0.296,0.062-0.441,0.062l0,0
	C510.19,360.145,509.543,359.682,509.342,358.973L509.342,358.973z"/>
<path display="none" fill="#F0BDD5" d="M260.439,478.037c-1.067-0.052-1.891-0.959-1.84-2.026l0,0l1.506-31.138
	c0.052-1.065,0.959-1.891,2.025-1.84l0,0c1.067,0.052,1.892,0.959,1.84,2.025l0,0l-1.502,31.139
	c-0.05,1.035-0.904,1.842-1.929,1.842l0,0C260.506,478.039,260.473,478.038,260.439,478.037L260.439,478.037z"/>
<path display="none" d="M261.246,479.05c-1.715,0-3.105-1.091-3.105-2.436c0-1.346,1.39-2.438,3.105-2.438l15.255-1.338
	c2.187,0,3.958,1.39,3.958,3.104c0,1.716-1.771,3.105-3.958,3.105L261.246,479.05L261.246,479.05z"/>
<path display="none" fill="#F0BDD5" d="M222.84,478.037c-1.067-0.052-1.891-0.959-1.84-2.026l0,0l1.503-31.138
	c0.053-1.065,0.959-1.891,2.028-1.84l0,0c1.066,0.052,1.891,0.959,1.839,2.025l0,0l-1.503,31.139
	c-0.053,1.035-0.904,1.842-1.93,1.842l0,0C222.906,478.039,222.874,478.038,222.84,478.037L222.84,478.037z"/>
<path display="none" d="M223.646,479.05c-1.715,0-3.105-1.091-3.105-2.436c0-1.346,1.39-2.438,3.105-2.438l15.255-1.338
	c2.187,0,3.958,1.39,3.958,3.104c0,1.716-1.771,3.105-3.958,3.105L223.646,479.05L223.646,479.05z"/>
<path display="none" fill="#F0BDD5" d="M186.111,443.075c-0.97-1.294-1.351-2.47-1.394-2.586l0,0
	c-0.336-1.016,0.212-2.11,1.227-2.446l0,0c1.013-0.336,2.108,0.212,2.447,1.229l0,0c0.002,0,0,0.003,0.03,0.076l0,0
	c0.029,0.075,0.078,0.194,0.147,0.339l0,0c0.138,0.29,0.355,0.688,0.634,1.056l0,0c0.597,0.764,1.241,1.263,2.133,1.261l0,0
	c0.269,0,0.604-0.046,1.013-0.181l0,0c-1.726-1.366-2.647-3.072-2.687-4.926l0,0c-0.024-2.023,1.306-3.85,3.167-4.545l0,0
	c0.593-0.24,1.208-0.343,1.796-0.341l0,0c2.917,0.041,5.646,2.332,5.72,5.715l0,0c0.001,1.013-0.274,2.025-0.818,3.001l0,0
	c1.713,0.36,2.91,0.485,3.673,0.482l0,0c0.176,0.001,0.326-0.007,0.454-0.017l0,0c0.09-0.601,0.459-1.146,1.042-1.441l0,0
	c0.954-0.484,2.117-0.103,2.6,0.852l0,0c0.07,0.155,0.298,0.575,0.309,1.332l0,0c0.045,0.706-0.397,1.831-1.292,2.392l0,0
	c-0.87,0.57-1.85,0.746-3.112,0.754l0,0c-1.228,0-2.774-0.19-4.858-0.649l0,0c-0.644-0.141-1.253-0.305-1.829-0.488l0,0
	c-0.035,0.024-0.071,0.051-0.107,0.074l0,0c-1.77,1.248-3.47,1.855-5.07,1.858l0,0C188.792,445.871,187.049,444.341,186.111,443.075
	L186.111,443.075z M194.625,435.881c-0.145,0-0.255,0.024-0.368,0.069l0,0c-0.556,0.247-0.704,0.523-0.725,0.946l0,0
	c-0.05,0.43,0.384,1.536,2.214,2.536l0,0c0.592-0.729,0.728-1.313,0.73-1.708l0,0c0-0.493-0.212-0.929-0.591-1.294l0,0
	c-0.369-0.353-0.879-0.551-1.238-0.551l0,0C194.639,435.881,194.632,435.881,194.625,435.881L194.625,435.881z"/>
<path display="none" fill="#F0BDD5" d="M182.195,424.099c-0.472-0.756-0.244-1.753,0.512-2.223l0,0
	c0.115-0.034,18.99-11.966,34.288-13.145l0,0c0.887-0.064,1.659,0.601,1.727,1.489l0,0c0.064,0.889-0.603,1.66-1.491,1.728l0,0
	c-10.437,0.736-23.788,7.494-29.691,10.836l0,0c-1.979,1.109-3.12,1.823-3.123,1.826l0,0v0.002
	c-0.266,0.167-0.561,0.245-0.853,0.245l0,0C183.026,424.857,182.501,424.589,182.195,424.099L182.195,424.099z"/>
<path display="none" fill="#F0BDD5" d="M189.624,425.922c-0.767-0.456-1.021-1.445-0.566-2.211l0,0
	c0.764-1.291,0.997-2.245,0.994-2.896l0,0c-0.016-1.052-0.509-1.682-1.485-2.349l0,0c-0.958-0.627-2.287-1.023-3.163-1.204l0,0
	c-0.587-0.123-0.928-0.157-0.928-0.157l0,0v0.003c-0.888-0.092-1.533-0.883-1.442-1.771l0,0c0.088-0.887,0.881-1.533,1.766-1.441
	l0,0c0.091,0.014,1.962,0.192,3.989,1.057l0,0c1.957,0.807,4.474,2.604,4.491,5.862l0,0c-0.002,1.407-0.48,2.907-1.448,4.542l0,0
	c-0.3,0.508-0.836,0.791-1.388,0.791l0,0C190.165,426.147,189.881,426.074,189.624,425.922L189.624,425.922z"/>
<path display="none" fill="#F0BDD5" d="M305.869,424.779c-14.861-10.419-29.601-13.147-31.116-13.256l0,0l-0.002-0.003v0.003
	c-0.893,0-1.614-0.725-1.614-1.615l0,0c0-0.895,0.721-1.614,1.614-1.614l0,0c0.635,0.019,1.673,0.19,3.607,0.617l0,0
	c1.882,0.424,4.434,1.104,7.45,2.131l0,0c6.028,2.056,13.906,5.503,21.914,11.095l0,0c0.729,0.51,0.905,1.516,0.396,2.245l0,0
	c-0.314,0.449-0.815,0.689-1.324,0.689l0,0C306.475,425.071,306.15,424.977,305.869,424.779L305.869,424.779z"/>
<path display="none" fill="#F0BDD5" d="M300.193,426.445c-0.051-0.144-2.554-2.771-2.644-6.252l0,0
	c-0.035-1.545,0.703-3.325,2.361-4.471l0,0c1.644-1.157,3.991-1.831,7.43-2.048l0,0c0.891-0.054,1.653,0.621,1.708,1.511l0,0
	c0.055,0.89-0.623,1.652-1.51,1.709l0,0c-3.104,0.183-4.895,0.828-5.754,1.455l0,0c-0.846,0.646-0.977,1.113-1.012,1.844l0,0
	c-0.045,1.234,1.018,3.065,1.588,3.791l0,0c0.183,0.245,0.275,0.355,0.279,0.355l0,0v0.002c0.58,0.676,0.504,1.695-0.172,2.273l0,0
	c-0.307,0.261-0.681,0.39-1.054,0.39l0,0C300.963,427.006,300.514,426.815,300.193,426.445L300.193,426.445z"/>
<path display="none" fill="#EA655F" d="M201.844,456.363h88.392c0,0-3.333-40.971-20.861-58.497l-44.304-1.507
	C225.071,396.359,212.597,391.198,201.844,456.363z"/>
<path display="none" fill="#E6392E" d="M201.843,457.651c-0.378,0-0.739-0.165-0.983-0.455l0,0
	c-0.245-0.287-0.352-0.672-0.291-1.043l0,0c4.656-28.204,9.627-43.327,13.871-51.53l0,0c4.208-8.166,7.915-9.646,9.966-9.65l0,0
	c0.379,0,0.677,0.051,0.881,0.104l0,0l44.13,1.5c0.325,0.009,0.64,0.145,0.871,0.376l0,0c18.039,18.188,21.165,59.196,21.235,59.306
	l0,0c0.027,0.357-0.094,0.716-0.339,0.979l0,0c-0.242,0.264-0.588,0.415-0.949,0.415l0,0L201.843,457.651L201.843,457.651z
	 M288.813,455.072c-0.119-1.138-0.325-2.924-0.649-5.202l0,0c-0.583-4.084-1.541-9.715-3.041-15.879l0,0
	c-2.942-12.157-8.059-26.382-16.307-34.854l0,0l-43.789-1.487l-0.398-0.089l-0.002,0.011c0,0,0,0-0.003-0.001l0,0
	c-0.031-0.005-0.103-0.019-0.218-0.019l0,0c-0.667-0.007-3.6,0.438-7.673,8.256l0,0c-3.966,7.644-8.813,22.179-13.368,49.265l0,0
	H288.813L288.813,455.072z"/>
<path display="none" fill="#F0BDD5" d="M301.161,332.482c-4.174-7.217-13.975-7.594-21.522-7.265
	c-10.453,0.453-20.874,2.063-32.333,5.724c0.385-3.34,0.256-7.155-0.416-9.933c-0.768-3.179-1.802-4.526-4.346-6.536
	c-2.052-1.621-3.691-2.355-5.939-0.779c-5.552,3.894-1.438,15.474,2.68,20.1c-3.728,1.502-7.417,3.26-10.875,5.373
	c-0.992-3.778-1.984-7.854-4.216-10.932c-3.196-4.414-10.131-5.453-11.177,1.779c-0.49,3.385,1.7,6.221,3.594,8.4
	c1.875,2.16,3.521,3.511,5.038,5.686c-3.436,2.991-6.411,6.502-8.623,10.693c-4.963,9.406-5.732,19.482-3.005,29.436
	c2.617,9.549,8.215,15.769,17.431,19.86c11.596,5.151,24.958,5.854,36.818,1.211c10.332-4.044,16.672-12.897,16.381-24.058
	c-0.147-5.645-1.76-11.022-3.766-16.244C287.677,361.05,309.998,347.758,301.161,332.482z"/>
<path display="none" fill="#EE97C0" d="M247.592,410.012c-7.118,0-14.229-1.536-20.795-4.447l0,0
	c-9.558-4.203-15.64-10.948-18.329-20.91l0,0c-1.063-3.871-1.617-7.773-1.617-11.662l0,0c-0.002-6.454,1.529-12.861,4.749-18.952
	l0,0c6.667-12.593,19.615-19.252,31.82-23.521l0,0c12.956-4.522,24.556-6.41,36.149-6.912l0,0c1.098-0.049,2.251-0.084,3.437-0.086
	l0,0c6.98,0.016,15.393,1.097,19.553,8.152l0,0c1.53,2.645,2.24,5.326,2.237,7.918l0,0c-0.045,7.077-5.005,13.02-10.8,17.633l0,0
	c-4.947,3.914-10.615,6.908-15.036,8.703l0,0c1.772,4.842,3.164,9.903,3.306,15.272l0,0c0.006,0.263,0.008,0.522,0.008,0.776l0,0
	c0.03,11.461-6.777,20.694-17.415,24.824l0,0c-5.544,2.169-11.396,3.21-17.245,3.21l0,0
	C247.607,410.012,247.6,410.012,247.592,410.012L247.592,410.012z M283.005,326.748c-1.122,0-2.228,0.033-3.295,0.081l0,0
	c-11.341,0.495-22.572,2.321-35.228,6.735l0,0c-11.932,4.158-24.026,10.559-30.029,21.981l0,0
	c-2.979,5.64-4.374,11.498-4.376,17.444l0,0c0,3.58,0.511,7.195,1.501,10.811l0,0c2.543,9.139,7.655,14.829,16.529,18.813l0,0
	c6.159,2.73,12.834,4.172,19.486,4.172l0,0c5.474,0,10.934-0.972,16.092-2.988l0,0c9.566-3.789,15.335-11.665,15.364-21.821l0,0
	c0-0.232-0.002-0.465-0.008-0.69l0,0c-0.124-4.853-1.401-9.574-3.108-14.244l0,0c-1.459,0.495-2.919,0.978-4.376,1.455l0,0
	c-0.845,0.278-1.758-0.183-2.037-1.028l0,0c-0.278-0.846,0.182-1.759,1.031-2.035l0,0c1.414-0.468,2.824-0.932,4.225-1.406l0,0
	c-0.111-0.277-0.223-0.556-0.336-0.832l0,0l0.002,0.002c-0.337-0.826,0.062-1.767,0.886-2.101l0,0
	c0.824-0.338,1.764,0.06,2.101,0.886l0,0c0.126,0.311,0.251,0.621,0.375,0.935l0,0c4.137-1.687,9.591-4.57,14.188-8.22l0,0
	c5.498-4.338,9.619-9.701,9.574-15.104l0,0c-0.002-2.011-0.526-4.091-1.803-6.305l0,0c-2.975-5.278-9.896-6.539-16.631-6.539l0,0
	C283.091,326.748,283.047,326.748,283.005,326.748L283.005,326.748z"/>
<path display="none" fill="#EE97C0" d="M294.756,352.214c-6.164-0.104-13.362-4.147-15.686-9.789l0,0
	c-0.847-2.198-1.374-4.764-1.377-7.329l0,0c-0.053-4.434,1.755-9.316,6.848-10.912l0,0h0.002c0.85-0.267,1.754,0.204,2.021,1.058
	l0,0c0.266,0.849-0.208,1.754-1.057,2.021l0,0c-3.295,1.037-4.536,4.03-4.587,7.836l0,0c-0.002,2.112,0.453,4.344,1.158,6.165l0,0
	c1.342,3.857,7.981,7.832,12.678,7.726l0,0c2.103-0.019,3.575-0.649,4.446-1.965l0,0c1.126-1.717,1.756-2.699,2.03-3.319l0,0
	c0.267-0.617,0.307-0.868,0.318-1.797l0,0c0-0.347-0.016-0.78-0.025-1.312l0,0c-0.024-0.889,0.677-1.632,1.567-1.652l0,0
	c0.89-0.022,1.63,0.68,1.653,1.568l0,0c0.016,0.518,0.029,0.965,0.029,1.396l0,0c0.013,1.077-0.127,2.108-0.604,3.131l0,0
	c-0.469,1.019-1.147,2.03-2.272,3.754l0,0c-1.599,2.444-4.343,3.424-7.065,3.424l0,0
	C294.807,352.214,294.781,352.214,294.756,352.214L294.756,352.214z"/>
<path display="none" fill="#EE97C0" d="M221.08,346.195c-1.57-2.726-3.321-4.021-5.686-6.726l0,0
	c-1.727-2.02-4.026-4.782-4.061-8.493l0,0c0-0.392,0.027-0.793,0.088-1.193l0,0c0.5-4.266,3.477-6.743,6.596-6.647l0,0
	c2.863,0.026,5.646,1.642,7.485,4.15l0,0c2.693,3.754,3.637,8.457,4.723,12.438l0,0c0.231,0.855-0.28,1.742-1.14,1.974l0,0
	c-0.859,0.231-1.745-0.278-1.974-1.138l0,0c-1.088-4.102-2.071-8.443-4.223-11.383l0,0c-1.259-1.767-3.321-2.839-4.872-2.814l0,0
	c-1.588,0.099-2.823,0.683-3.406,3.895l0,0c-0.035,0.232-0.05,0.475-0.05,0.721l0,0c-0.035,2.211,1.575,4.461,3.268,6.379l0,0
	c2.075,2.41,4.13,3.938,6.043,7.224l0,0c0.447,0.772,0.183,1.757-0.588,2.204l0,0c-0.254,0.146-0.532,0.217-0.806,0.217l0,0
	C221.921,347,221.379,346.712,221.08,346.195L221.08,346.195z"/>
<path display="none" fill="#EE97C0" d="M239.828,336.477c-3.753-2.754-7.411-10.09-7.528-16.55l0,0
	c-0.013-2.875,0.87-5.797,3.379-7.552l0,0c1.05-0.746,2.182-1.174,3.323-1.17l0,0c1.827,0.021,3.214,0.966,4.543,2.002l0,0
	c2.65,2.021,4.152,4.02,4.913,7.422l0,0c0.465,1.934,0.681,4.208,0.681,6.523l0,0c-0.003,2.766-0.309,5.557-0.963,7.84l0,0
	c-0.25,0.855-1.143,1.347-1.999,1.101l0,0c-0.856-0.247-1.351-1.144-1.101-1.999l0,0c0.539-1.853,0.84-4.426,0.837-6.939l0,0
	c0-2.106-0.208-4.187-0.59-5.768l0,0c-0.776-2.953-1.342-3.652-3.777-5.647l0,0c-1.191-0.952-2.007-1.327-2.544-1.308l0,0
	c-0.356,0.004-0.779,0.105-1.473,0.584l0,0c-1.35,0.94-1.991,2.588-2.004,4.911l0,0c-0.117,5.086,3.745,12.401,6.138,13.894l0,0
	v0.004c0.733,0.505,0.917,1.509,0.411,2.242l0,0c-0.313,0.453-0.816,0.696-1.329,0.696l0,0
	C240.428,336.764,240.108,336.67,239.828,336.477L239.828,336.477z"/>
<path display="none" fill="#FFFFFF" d="M242.772,338.518c-5.787,0.135-7.412,7.979-3.264,11.403
	c4.969,4.103,11.445,0.315,10.675-5.795c-0.396-3.137-2.803-5.258-5.998-5.844L242.772,338.518z"/>
<path display="none" fill="#EE97C0" d="M238.48,351.162c-1.997-1.655-2.905-4.073-2.902-6.389l0,0
	c-0.063-3.701,2.484-7.691,7.036-7.867l0,0l1.308-0.217l0.554,0.004c3.714,0.643,6.832,3.318,7.309,7.233l0,0
	c0.05,0.403,0.072,0.798,0.072,1.181l0,0c-0.008,4.679-3.637,8.129-7.865,8.14l0,0C242.127,353.249,240.181,352.571,238.48,351.162
	L238.48,351.162z M242.809,340.13c-2.556,0.056-3.94,2.136-4.004,4.646l0,0c0.002,1.502,0.577,2.953,1.73,3.9l0,0
	c1.177,0.967,2.359,1.342,3.456,1.346l0,0c2.465-0.021,4.619-1.937,4.638-4.914l0,0c0-0.256-0.016-0.521-0.045-0.779l0,0
	c-0.307-2.289-1.907-3.829-4.439-4.405l0,0l-1.11,0.185L242.809,340.13L242.809,340.13z"/>
<path display="none" fill="#FFFFFF" d="M260.112,331.951c-2.844,0.703-5.022,2.078-4.668,5.273c0.269,2.424,1.644,5.078,3.788,6.308
	c4.049,2.317,11.856-1.874,8.847-6.782c-1.551-2.529-4.349-4.089-7.124-4.799H260.112L260.112,331.951z"/>
<path display="none" fill="#EE97C0" d="M258.427,344.932c-2.743-1.621-4.243-4.662-4.587-7.518l0,0
	c-0.035-0.3-0.05-0.585-0.05-0.854l0,0c-0.024-1.773,0.761-3.334,1.924-4.305l0,0c1.157-0.988,2.562-1.509,4.012-1.872l0,0
	l0.385-0.048h0.841l0.399,0.053c3.057,0.785,6.231,2.494,8.102,5.518l0,0c0.601,0.977,0.912,2.029,0.91,3.054l0,0
	c-0.011,2.172-1.304,3.903-2.879,5.029l0,0c-1.599,1.141-3.576,1.801-5.565,1.812l0,0
	C260.729,345.798,259.516,345.551,258.427,344.932L258.427,344.932z M257.821,334.698c-0.529,0.489-0.779,0.909-0.803,1.862l0,0
	c0,0.153,0.007,0.307,0.029,0.483l0,0c0.194,1.981,1.442,4.249,2.985,5.085l0,0c0.492,0.284,1.144,0.443,1.886,0.443l0,0
	c1.234,0.009,2.671-0.469,3.685-1.202l0,0c1.035-0.75,1.546-1.631,1.535-2.411l0,0c-0.002-0.389-0.106-0.823-0.436-1.367l0,0
	c-1.202-1.988-3.535-3.381-5.965-4.031l0,0h-0.42C259.212,333.848,258.331,334.249,257.821,334.698L257.821,334.698z
	 M260.111,333.563v-1.611V333.563L260.111,333.563z"/>
<path display="none" fill="#F09DC4" d="M220.552,361.242c-4.031,3.4-5.292,7.783-3.554,12.843c1.335,3.884,4.85,7.729,9.088,8.327
	c9.879,1.396,12.106-13.393,6.321-18.878c-2.885-2.734-6.988-4.566-10.845-2.966L220.552,361.242z"/>
<path display="none" fill="#E64C8E" d="M240.75,381.963v0.003c-0.425-0.784-0.134-1.764,0.652-2.186l0,0
	c0.783-0.427,1.761-0.134,2.186,0.648l0,0c0,0,0.043,0.083,0.168,0.283l0,0c0.123,0.203,0.315,0.502,0.575,0.862l0,0
	c0.518,0.725,1.304,1.699,2.338,2.664l0,0c2.079,1.936,5.058,3.783,8.994,3.783l0,0c1.496,0,3.153-0.268,4.993-0.924l0,0
	c8.043-2.982,8.805-7.396,8.898-10.005l0,0c0-0.601-0.062-1.096-0.118-1.428l0,0c-0.059-0.334-0.099-0.445-0.096-0.442l0,0
	c-0.265-0.853,0.211-1.756,1.063-2.021l0,0c0.849-0.265,1.752,0.211,2.017,1.063l0,0c0.032,0.111,0.358,1.188,0.361,2.826l0,0
	c0.093,3.543-1.86,9.842-11.038,13.042l0,0c-2.162,0.774-4.198,1.113-6.081,1.113l0,0
	C245.597,391.145,240.849,382.075,240.75,381.963L240.75,381.963z"/>
<ellipse display="none" cx="242.985" cy="345.394" rx="2.169" ry="2.26"/>
<ellipse display="none" cx="260.695" cy="338.618" rx="2.169" ry="2.259"/>
<ellipse display="none" fill="#BD739C" cx="287.35" cy="338.934" rx="2.349" ry="2.395"/>
<ellipse display="none" fill="#BD739C" cx="295.092" cy="337.428" rx="2.349" ry="2.395"/>
<path fill="#0A0508" d="M250.984,567.23l-3.252-84.613c-0.204-5.059,3.743-9.326,8.805-9.52l0,0
	c5.056-0.188,9.321,3.756,9.512,8.814l0,0l3.267,84.604c0.189,5.063-3.748,9.326-8.804,9.518l0,0
	c-0.121,0.006-0.236,0.01-0.357,0.01l0,0C255.25,576.043,251.179,572.166,250.984,567.23L250.984,567.23z"/>
<path d="M265.516,578.42c6.288,0,11.38-5.553,11.38-12.389c0-6.846-5.094-12.398-11.38-12.398l-55.916-6.811
	c-8.018,0-14.504,7.088-14.504,15.809c0,8.703,6.486,15.789,14.504,15.789H265.516z"/>
<path fill="#0A0508" d="M490.252,512.846c-0.291-0.404-0.574-0.814-0.857-1.221l0,0c-3.34-0.344-6.869-0.877-10.584-1.607l0,0
	c-14.486-2.91-23.424-5.875-29.625-9.271l0,0c-5.932-3.178-10.672-8.199-10.725-14.842l0,0c0.342-7.232,4.475-9.809,5.152-10.52l0,0
	c3.996-3.115,9.756-2.4,12.85,1.594l0,0c1.787,2.281,2.314,5.146,1.695,7.762l0,0c3.205,1.803,10.299,4.447,22.701,6.979l0,0
	c-0.244-1.582-0.369-3.154-0.375-4.703l0,0c-0.078-8.152,3.734-15.412,9.15-19.734l0,0c5.424-4.385,12.002-6.332,18.506-6.346l0,0
	c6.602,0,13.449,2.066,18.914,6.898l0,0c5.264,4.666,8.656,11.158,8.646,18.172l0,0c0.072,7.486-4.123,14.781-10.805,19.242l0,0
	c-3.479,2.354-7.555,4.111-12.215,5.256l0,0c4.281,3.521,7.766,4.207,10.711,4.293l0,0c6.426,0.268,13.527-5.547,14.662-6.881l0,0
	c0.125-0.113,0.125-0.113,0.125-0.113l0,0c3.41-3.738,9.211-4.008,12.949-0.592l0,0c3.752,3.408,4.002,9.209,0.596,12.961l0,0
	c-0.777,0.518-10.811,12.572-28.33,12.963l0,0c-0.127,0-0.246,0-0.365,0l0,0C512.131,533.135,499.986,526.9,490.252,512.846
	L490.252,512.846z M501.254,481.48c-1.52,1.363-2.338,2.561-2.426,5.535l0,0c-0.014,1.592,0.385,3.846,1.541,6.699l0,0
	c7.25-0.26,11.836-1.98,14.17-3.615l0,0c2.564-1.873,2.762-3.037,2.834-4.094l0,0c-0.018-1.021-0.473-2.643-2.508-4.49l0,0
	c-1.445-1.314-3.949-2.254-6.723-2.244l0,0c-0.037,0-0.068,0-0.107,0l0,0C505.365,479.271,502.752,480.211,501.254,481.48
	L501.254,481.48z"/>
<path fill="#0A0508" d="M186.305,376.795c0.32-0.693,0.785-1.246,1.326-1.695c-1.192-0.061-2.417,0.113-3.61,0.551L81.11,413.35
	c-4.747,1.742-7.194,7.014-5.45,11.771c1.37,3.711,4.872,6.018,8.614,6.018c1.046,0,2.109-0.18,3.146-0.559l94.209-34.518
	C181.945,389.445,183.486,382.908,186.305,376.795z"/>
<path fill="#0A0508" d="M549.67,414.258l-87.662-28.408c5.662,6.412,9.654,14.5,10.486,22.678l71.521,23.182
	c0.939,0.301,1.895,0.445,2.834,0.445c3.861,0,7.453-2.467,8.715-6.338C557.127,420.99,554.48,415.822,549.67,414.258z"/>
<path fill="#0A0508" d="M509.188,446.215l-2.932-32.609c-0.279-3.205,1.146-6.35,3.756-8.238l0,0l25.354-18.332
	c4.094-2.98,9.814-2.063,12.795,2.045l0,0c2.965,4.105,2.045,9.83-2.066,12.801l0,0l-21.111,15.293l2.461,27.41
	c0.449,5.045-3.285,9.498-8.318,9.947l0,0c-0.273,0.023-0.547,0.037-0.813,0.037l0,0
	C513.605,454.568,509.604,450.975,509.188,446.215L509.188,446.215z"/>
<path fill="none" d="M187.181,352.432c-8.999,34.816-17.428,72.117-2.281,106.566c15.773,35.859,51.665,55.309,88.616,62.697
	c42.241,8.434,89.713,5.33,129.69-11.16c36.146-14.92,68.461-45.451,71.307-86.461c2.732-39.295-24.27-66.417-54.799-86.373
	c-3.863-2.526-7.781-4.979-11.691-7.426L187.181,352.432z"/>
<path fill="#0A0508" d="M427.287,333.559c-2.955,4.015-6.063,8.227-9.488,12.049c27.385,18.371,49.352,41.566,49.252,73.014
	c0,1.619-0.053,3.262-0.168,4.932c-2.424,36.971-32.158,65.688-66.607,79.912c-24.701,10.189-52.641,15.117-80.325,15.117
	c-15.263,0-30.443-1.486-44.942-4.389c-35.526-7.107-68.823-25.572-83.119-58.281c-5.561-12.617-7.689-25.674-7.703-39.164
	c-0.008-18.615,4.176-37.988,9.024-57.107c-3.119-4.41-5.4-9.805-7.4-14.713c-2.913,0.527-5.283,2.676-6.033,5.585
	c-5.421,21.026-10.853,43.433-10.867,66.235c0,15.096,2.424,30.434,8.99,45.332c17.243,39.016,55.729,59.441,94.11,67.105
	c15.522,3.102,31.677,4.684,47.94,4.684c29.48,0,59.311-5.219,86.154-16.275c37.857-15.611,72.756-47.963,76.014-92.992
	c0.156-2.027,0.221-4.012,0.207-5.979C482.229,379.693,455.766,352.814,427.287,333.559z"/>
<path fill="none" d="M394.188,156.578c5.533-6.509,10.455-13.486,15.156-20.833c9.271-14.472,26.127-61.819-10.383-50.915
	c-19.754,5.899-27.959,31.978-33.559,53.875c-9.619-5.043-19.631-9.512-29.814-13.468c1.033-2.859,1.985-5.718,2.693-8.592
	c3.858-15.73,5.473-57.789-22.395-47.472c-17.609,6.519-20.604,25.672-18.576,43.396c-67.458-19.824-179.337-43.3-223.481,19.547
	c-19.826,28.225-15.083,66.837,3.672,94.301c20.356,29.809,53.575,41.776,88.176,45.168c4.525,0.439,9.063,0.754,13.606,1.022
	c-7.208,27.125-11.566,55.92,4.608,80.856c21.545,33.229,66.224,45.866,103.563,47.694c81.624,3.992,163.55-48.547,164.421-136.19
	C452.352,216.806,428.313,181.733,394.188,156.578z"/>
<path fill="#0A0508" d="M101.586,446.412c0-22.918-4.483-35.004-8.453-41.035l0,0c-3.998-5.996-7.398-6.695-7.958-6.918l0,0l0,0
	c-4.853-0.598-8.416-4.938-8.014-9.85l0,0c0.426-5.057,4.854-8.809,9.902-8.379l0,0c1.609,0.066,10.59,1.512,18.539,11.176l0,0
	c7.944,9.639,14.334,26.221,14.334,55.006l0,0c0,5.066-4.109,9.18-9.18,9.18l0,0C105.691,455.592,101.586,451.479,101.586,446.412
	L101.586,446.412z"/>
<path fill="#0A0508" d="M363.529,131.988c0.006-0.372,0.047-0.718,0.102-1.054c-9.109-4.554-18.498-8.628-28.004-12.245
	c-0.518,4.104-1.596,8.032-2.773,12.032c10.317,3.988,20.434,8.518,30.114,13.613C363.115,140.216,363.476,136.111,363.529,131.988z
	"/>
<path fill="#0A0508" d="M412.813,163.925c-5.314-4.855-10.965-9.396-16.873-13.648c-1.785,2.665-3.758,5.174-5.998,7.495
	c-0.74,0.768-1.539,1.272-2.35,1.57c5.996,4.244,11.686,8.769,16.965,13.608c24.945,22.902,41.145,52.071,41.207,90.59v1.439
	c-0.693,80.288-73.375,130.114-149.614,130.267c-2.795,0-5.594-0.064-8.406-0.203c-36.355-1.676-79.183-14.361-98.725-44.919
	c-7.402-11.418-10.1-23.58-10.113-36.517c-0.019-11.227,2.114-22.946,5.028-34.628c2.351,0.11,4.696,0.227,7.033,0.333
	c3.372,0.148,6.231-2.442,6.379-5.814c0.167-3.374-2.444-6.231-5.807-6.39c-1.458-0.065-2.915-0.134-4.368-0.208
	c0.598-2.092,1.203-4.173,1.806-6.251c0.929-3.243-0.925-6.64-4.168-7.568c-3.234-0.939-6.629,0.916-7.569,4.159l-0.008-0.009
	c-0.856,2.942-1.717,5.932-2.559,8.956c-2.818-0.194-5.622-0.417-8.412-0.689c-33.712-3.35-64.784-14.796-83.716-42.536
	c-9.729-14.217-15.434-31.743-15.434-48.777c0.019-13.749,3.668-27.106,11.71-38.565c19.777-28.291,55.078-38.178,95.069-38.201
	c44.454-0.026,93.417,12.404,128.262,22.957c-1.728-4.294-2.332-8.875-2.542-13.507c-34.832-10.27-81.692-21.654-125.72-21.678
	c-41.634-0.024-81.764,10.281-105.073,43.405c-9.651,13.723-13.925,29.692-13.912,45.59c0.009,19.732,6.468,39.451,17.54,55.685
	c21.79,31.863,57.142,44.354,92.635,47.801c2.148,0.208,4.298,0.388,6.44,0.55c-2.771,11.5-4.825,23.405-4.839,35.387
	c-0.014,14.63,3.169,29.483,12.079,43.188c23.536,35.898,70.074,48.5,108.385,50.457c3.003,0.143,6,0.221,9.003,0.221h0.379
	c80.901,0,160.442-53.906,161.454-142.448v-1.485C458.039,221.422,439.717,188.437,412.813,163.925z"/>
<path fill="#0A0508" d="M378.172,172.257c-2.209-2.559-1.93-6.421,0.633-8.624l0,0c10.141-8.731,17.82-19.368,25.381-31.187l0,0
	c4.371-6.583,11.252-23.706,11.08-34.138l0,0c0.014-3.558-0.768-6.024-1.633-7.115l0,0c-0.875-1.027-1.67-1.771-5.143-1.887l0,0
	c-1.887,0-4.494,0.385-7.789,1.384l0,0c-10.045,2.832-17.43,13.578-22.734,27.651l0,0c-5.307,13.908-8.352,29.995-11.717,41.468l0,0
	h0.012c-0.961,3.238-4.37,5.088-7.602,4.141l0,0c-3.242-0.963-5.102-4.368-4.145-7.596l0,0c3.117-10.479,6.235-27.107,12.023-42.361
	l0,0c5.807-15.12,14.467-30.026,30.666-35.018l0,0c4.131-1.244,7.83-1.892,11.287-1.892l0,0c6.105-0.098,11.756,2.392,14.922,6.782
	l0,0c3.191,4.317,4.051,9.396,4.074,14.444l0,0c-0.176,14.772-7.467,31.844-13.01,40.728l0,0
	c-7.771,12.145-16.137,23.9-27.689,33.871l0,0c-1.152,0.994-2.572,1.48-3.977,1.48l0,0
	C381.09,174.385,379.379,173.663,378.172,172.257L378.172,172.257z"/>
<path fill="#0A0508" d="M342.528,74.495c-2.827-6.894-9.54-13.223-18.677-13.061c-3.256,0-6.606,0.698-10.097,2.008
	c-17.923,6.597-23.303,24.229-23.127,39.856c0.009,12.19,2.823,24.303,5.898,33.326c1.083,3.188,4.572,4.89,7.759,3.807
	c3.201-1.096,4.895-4.567,3.808-7.764c-0.623-1.814-1.231-3.799-1.806-5.895c-0.686-0.727-1.229-1.592-1.545-2.533
	c-1.689-4.994-2.01-10.084-1.657-15.263c-0.151-1.905-0.235-3.805-0.235-5.678c0.182-13.81,3.924-24.261,15.144-28.396
	c2.477-0.916,4.405-1.245,5.858-1.245c3.746,0.167,5.307,1.471,7.521,5.833c1.965,4.303,2.93,11.094,2.904,17.774
	c0.01,4.761-0.442,9.494-1.056,13.362c0.515,1.16,0.579,2.577-0.052,4.195c-1.371,3.518-2.57,7.091-3.766,10.672
	c-0.332,0.99-0.805,1.789-1.367,2.435c-1.917,4.804-4.063,9.734-5.973,14.731c-1.215,3.164,0.377,6.685,3.543,7.897
	c0.711,0.269,1.439,0.398,2.16,0.398c2.467,0,4.797-1.502,5.729-3.95c3.326-8.837,8.123-18.497,10.716-28.911
	c1.284-5.38,2.279-12.857,2.294-20.828C346.484,89.517,345.609,81.444,342.528,74.495z"/>
<path fill="#0A0508" d="M72.61,227.261v0.009c-2.768-1.953-3.438-5.765-1.486-8.518l0,0c1.939-2.762,5.752-3.433,8.518-1.494l0,0
	c6.011,4.21,12.03,5.94,18.27,5.959l0,0c14.519,0.153,31.071-10.526,43.651-26.501l0,0c12.607-15.831,21.014-36.521,20.944-53.838
	l0,0c-0.093-13.31-4.479-24.164-15.105-31.58l0,0c-6.302-4.376-13.903-6.297-21.93-6.297l0,0
	c-7.634-0.019-15.559,1.763-22.518,4.709l0,0c-3.119,1.31-6.703-0.147-8.013-3.251l0,0c-1.318-3.123,0.143-6.714,3.262-8.013l0,0
	c8.37-3.516,17.761-5.672,27.268-5.682l0,0c9.965,0,20.143,2.434,28.888,8.471l0,0c14.398,9.888,20.468,25.594,20.38,41.644l0,0
	c-0.069,21.106-9.572,43.661-23.609,61.436l0,0c-14.06,17.663-32.875,30.992-53.218,31.135l0,0c-0.046,0-0.088,0-0.129,0l0,0
	C89.207,235.45,80.503,232.835,72.61,227.261L72.61,227.261z"/>
<path fill="#0A0508" d="M144.385,163.18c0,6.75-5.473,12.224-12.228,12.224c-6.75,0-12.224-5.474-12.224-12.224
	c0-6.755,5.474-12.228,12.224-12.228C138.913,150.953,144.385,156.425,144.385,163.18z"/>
<circle fill="#0A0508" cx="94.466" cy="159.1" r="12.228"/>
<path fill="#0A0508" d="M238.113,340.896c-16.924-2.244-27.556-12.86-33.265-22.152l0,0c-5.802-9.372-7.467-17.773-7.591-18.306l0,0
	c-0.842-4.141,1.837-8.153,5.99-8.994l0,0c4.132-0.837,8.161,1.846,8.999,6l0,0c0,0,0.037,0.185,0.204,0.856l0,0
	c0.181,0.689,0.481,1.703,0.912,2.967l0,0c0.879,2.512,2.318,5.944,4.46,9.387l0,0c4.423,6.939,10.979,13.518,22.337,15.092l0,0
	c1.698,0.227,3.331,0.33,4.885,0.33l0,0c16.96,0.203,27.065-13.354,29.147-16.635l0,0c0.282-0.429,0.319-0.501,0.319-0.494l0,0
	c2.068-3.684,6.73-4.979,10.404-2.906l0,0c3.669,2.059,4.979,6.723,2.906,10.406l0,0c-0.454,0.62-13.565,24.571-42.776,24.914l0,0
	c-0.083,0-0.166,0-0.255,0l0,0C242.633,341.359,240.408,341.213,238.113,340.896L238.113,340.896z"/>
<path fill="#FFFFFF" d="M249.079,122.421c-9.93,6.569-19.992,8.919-24.6,20.556c-4.179,10.554-7.162,22.323,1.897,30.877
	c21.475,20.269,46.213-2.544,48.323-26.352c1.291-14.605-10.012-19.58-21.806-22.785L249.079,122.421z"/>
<path fill="#0A0508" d="M222.18,178.3c-5.672-5.251-7.938-12.195-7.851-18.5l0,0c0.027-6.907,2.193-13.324,4.455-19.08l0,0
	c6.019-14.662,18.483-17.54,26.917-23.4l0,0c1.967-1.31,4.488-1.356,6.51-0.139l0,0l3.118,1.864
	c5.597,1.57,11.432,3.581,16.428,7.39l0,0c5.274,3.918,9.271,10.641,9.146,18.838l0,0c0,0.87-0.041,1.795-0.12,2.762l0,0
	c-1.972,19.82-16.549,39.223-36.739,39.741l0,0c-0.052,0-0.093,0-0.134,0l0,0C236.49,187.775,228.833,184.623,222.18,178.3
	L222.18,178.3z M230.152,145.221c-2.096,5.218-3.623,10.423-3.6,14.578l0,0c0.079,3.875,0.936,6.61,4.017,9.6l0,0
	c4.95,4.622,9.354,6.117,13.476,6.159l0,0c10.905,0.519,23.442-13.746,24.558-28.573l0,0c0.052-0.597,0.074-1.17,0.074-1.711l0,0
	c-0.125-4.724-1.517-6.764-4.381-9.147l0,0c-2.914-2.295-7.689-4.104-12.991-5.51l0,0l-1.56-0.657l-0.656-0.393
	C239.511,135.223,233.043,137.489,230.152,145.221L230.152,145.221z M245.928,127.663l3.142-5.242L245.928,127.663L245.928,127.663z
	"/>
<path fill="none" d="M316.318,159.869c-18.895,5.2-38.038,36.742-16.316,51.978c9.072,6.371,23.489,1.046,32.08-3.97
	c11.26-6.574,11.536-14.869,10.885-27.12c-0.836-15.554-8.002-20.833-23.59-20.125L316.318,159.869z"/>
<path fill="#0A0508" d="M296.476,216.847c-8.425-5.797-12.353-14.601-12.251-22.989l0,0c0.467-18.113,14.425-35.059,30.465-39.898
	l0,0c1.003-0.277,2.11-0.291,3.104-0.027l0,0l2.18,0.541c0.715-0.028,1.387-0.033,2.008-0.033l0,0
	c7.605-0.014,14.457,1.508,19.555,6.259l0,0c5.04,4.789,7.105,11.649,7.529,19.76l0,0c0.1,2.178,0.201,4.336,0.201,6.49l0,0
	c0.389,9.553-2.941,20.112-14.138,26.21l0,0c-6.421,3.673-15.407,7.629-24.909,7.708l0,0
	C305.627,220.868,300.729,219.822,296.476,216.847L296.476,216.847z M296.454,193.858c0.115,5.039,1.738,9.124,7.049,12.972l0,0
	c1.685,1.194,3.872,1.791,6.719,1.805l0,0c5.788,0.079,13.635-3.002,18.771-6.047l0,0c7.31-4.709,7.664-7.272,8.058-15.638l0,0
	c0-1.767-0.092-3.743-0.194-5.885l0,0c-0.359-6.574-1.908-9.809-3.699-11.456l0,0c-1.758-1.684-5.001-2.937-11.172-2.952l0,0
	c-0.793,0-1.523,0.024-2.213,0.061l0,0l-1.884-0.162l-1.452-0.365C306.932,169.5,296.022,183.389,296.454,193.858L296.454,193.858z
	 M314.83,165.794l1.486-5.926L314.83,165.794L314.83,165.794z"/>
<ellipse cx="253.279" cy="151.078" rx="9.553" ry="11.08"/>
<ellipse cx="323.582" cy="186.992" rx="9.551" ry="11.081"/>
<path fill="#0A0508" d="M374.547,567.23l-2.871-74.496c-0.191-5.072,3.754-9.334,8.805-9.521l0,0c5.07-0.189,9.33,3.744,9.52,8.803
	l0,0l2.873,74.5c0.189,5.063-3.746,9.326-8.803,9.518l0,0c-0.121,0.006-0.24,0.01-0.352,0.01l0,0
	C378.805,576.043,374.734,572.166,374.547,567.23L374.547,567.23z"/>
<path d="M389.074,578.42c6.289,0,11.381-5.553,11.381-12.389c0-6.846-5.094-12.398-11.381-12.398l-55.908-6.811
	c-8.02,0-14.511,7.088-14.511,15.809c0,8.703,6.491,15.789,14.511,15.789H389.074z"/>
</svg>
